<?xml version="1.0" standalone="no"?>
<!DOCTYPE svg PUBLIC "-//W3C//DTD SVG 1.1//EN" "http://www.w3.org/Graphics/SVG/1.1/DTD/svg11.dtd" >
<svg xmlns="http://www.w3.org/2000/svg" xmlns:xlink="http://www.w3.org/1999/xlink" version="1.1">
<metadata>
Created by FontForge 20201107 at Sun Aug 28 21:25:20 1932
 By Unknown
Generated by Hesham Darweesh
</metadata>
<defs>
<font id="AF_Tabook-NormalTraditional" horiz-adv-x="1155" >
  <font-face 
    font-family="Hesham Fostat"
    font-weight="400"
    font-stretch="normal"
    units-per-em="2048"
    panose-1="0 0 0 0 0 0 0 0 0 0"
    ascent="1638"
    descent="-410"
    bbox="-173 -831 2277 1860"
    underline-thickness="67"
    underline-position="-535"
    unicode-range="U+F200-F2FF"
  />
<missing-glyph horiz-adv-x="1808" 
d="M113 0v1808h1582v-1808h-1582zM1582 113v1582h-1356v-1582h1356z" />
    <glyph glyph-name=".notdef" horiz-adv-x="1808" 
d="M113 0v1808h1582v-1808h-1582zM1582 113v1582h-1356v-1582h1356z" />
    <glyph glyph-name=".null" horiz-adv-x="0" 
 />
    <glyph glyph-name="glyph2" horiz-adv-x="300" 
 />
    <glyph glyph-name="space" unicode="&#xf200;" horiz-adv-x="300" 
 />
    <glyph glyph-name="SOH" unicode="&#xf201;" horiz-adv-x="1241" 
d="M1180 -125q-69 -104 -236 -104h-137v229h-307v520l-15 -20l-135 -174q-90 -123 -153 -246q-14 -29 -24.5 -57t-19.5 -61q-14 -59 -14 -120q0 -147 109 -231q55 -38 112 -60t115 -22q61 0 106 9t85 30q19 9 37 22.5t38 33.5q37 34 86 97q0 -34 -10 -65.5t-34 -70.5
q-42 -74 -126 -120q-37 -21 -90.5 -34t-120.5 -13q-96 0 -199 38.5t-175 131.5q-36 49 -54 109.5t-18 144.5q0 128 49 238q13 31 22 50q14 30 22 46l38 74q36 64 88 133l162 211l57 80q62 89 62 131v37q0 21 -13 35q-6 8 -30 16q-21 0 -33 -8l-27 -13q0 27 8 48.5t27 42.5
q19 17 40.5 27.5t43.5 10.5h8l45 82l70 88v-1032h168v842q0 24 -12.5 36.5t-30.5 12.5q-15 0 -59 -18q0 55 26 82l25 22q10 9 20 13l22 8l25 4h8l50 86l65 84v-1401h8q68 0 105 43q18 19 28.5 65.5t10.5 110.5v950q0 24 -13 37.5t-30 13.5h-25l-35 -18q0 50 35 88
q16 16 39 29q23 10 45 10h8l54 92l61 78v-1280q0 -170 -57 -254z" />
    <glyph glyph-name="STX" unicode="&#xf202;" horiz-adv-x="1585" 
d="M651 0v139h813v291q0 22 -14 39q-9 12 -31 16q-15 0 -33 -18h-24q0 58 35.5 93.5t83.5 35.5h8l57 92l58 82v-770h-953zM1380 -262q-24 -29 -67 -29q-38 0 -67 26t-29 68q0 41 26 70q12 11 32 20q9 3 18 5t20 2q39 0 67.5 -30.5t28.5 -66.5q0 -19 -5 -31t-9.5 -18.5
t-14.5 -15.5zM987 166v309l-135 -43q-85 -28 -137 -80q-42 -43 -67 -113q-11 -34 -17 -68t-6 -69v-39q0 -225 -102.5 -347t-256.5 -122q-68 0 -125.5 30.5t-103.5 76.5l-35 37l14 6q14 0 19 2q17 0 31 -6t25.5 -13.5t19.5 -13.5q22 -16 50 -25.5t62 -9.5q125 0 192.5 100
t67.5 306v29q0 81 32 174t112 164q76 66 188 106l168 53q25 6 33 13l33 22l77 66v-545h-139zM455 2q-98 18 -129 69.5t-31 129.5v20v23l43 -58l15 -12l16 -10q33 -25 92 -25z" />
    <glyph glyph-name="ETX" unicode="&#xf203;" horiz-adv-x="1608" 
d="M651 0v139h813v291q0 22 -14 39q-9 12 -31 16q-15 0 -33 -18h-24q0 58 35.5 93.5t83.5 35.5h8l57 92l58 82v-770h-953zM1532 -291q-34 -26 -68 -26q-39 0 -67 28q-29 26 -29 66q0 41 29 68.5t67 27.5q33 0 65 -28.5t32 -67.5q0 -35 -29 -68zM1321 -291q-34 -26 -68 -26
q-39 0 -67 28q-29 26 -29 66q0 41 29 68.5t67 27.5q33 0 65 -28.5t32 -67.5q0 -35 -29 -68zM987 166v309l-135 -43q-85 -28 -137 -80q-42 -43 -67 -113q-11 -34 -17 -68t-6 -69v-39q0 -225 -102.5 -347t-256.5 -122q-68 0 -125.5 30.5t-103.5 76.5l-35 37l14 6q14 0 19 2
q17 0 31 -6t25.5 -13.5t19.5 -13.5q22 -16 50 -25.5t62 -9.5q125 0 192.5 100t67.5 306v29q0 81 32 174t112 164q76 66 188 106l168 53q25 6 33 13l33 22l77 66v-545h-139zM455 2q-98 18 -129 69.5t-31 129.5v20v23l43 -58l15 -12l16 -10q33 -25 92 -25z" />
    <glyph glyph-name="EOT" unicode="&#xf204;" horiz-adv-x="1309" 
d="M1159 901q-6 -6 -20 -10l-26 -3h-18l-17 1l-26 -2q-14 0 -28 14q-13 10 -22 27q-7 18 -7 39q0 38 27 67q24 29 68 29q39 0 67 -31q29 -27 29 -65q0 -36 -27 -66zM948 901q-29 -29 -69 -29q-37 0 -66 29q-13 10 -22 27q-7 18 -7 39q0 38 27 67q24 29 68 29q39 0 67 -31
q29 -27 29 -65q0 -36 -27 -66zM272 0l15 139h882v291q0 23 -16 39q-10 12 -29 16h-26l-33 -18q0 49 35.5 89t83.5 40h10l37 80l78 94v-770h-1037zM616 166v309l-75 -18l-82 -31q-59 -23 -115 -76q-45 -45 -65 -102l-19 -76l-4 -57l-12 -107q-12 -92 -66 -158
q-23 -28 -57 -58q-27 -26 -70 -56l25 61l11 33l11 39q13 44 13 135l6 100l6 89q23 145 92 217q19 19 30 29t31 27q14 11 35 25q14 9 20 13l53 29q11 5 26 11.5t28 10.5l174 55l17 7q7 2 20 12l29 16l78 66v-545h-140zM84 0h-104v139h114zM1047 1139q-6 -6 -20 -10l-26 -3
h-18l-17 1l-26 -2q-14 0 -28 14q-13 10 -22 27q-7 18 -7 39q0 38 27 67q24 29 68 29q39 0 67 -31q29 -27 29 -65q0 -36 -27 -66z" />
    <glyph glyph-name="ENQ" unicode="&#xf205;" horiz-adv-x="1616" 
d="M651 0v139h813v998q0 22 -14 39q-9 12 -31 16q-15 0 -33 -18h-24q0 58 35.5 93.5t83.5 35.5h8l57 92l58 82v-1477h-953zM987 166v309l-135 -43q-85 -28 -137 -80q-42 -43 -67 -113q-11 -34 -17 -68t-6 -69v-39q0 -225 -102.5 -347t-256.5 -122q-68 0 -125.5 30.5
t-103.5 76.5l-35 37l14 6q14 0 19 2q17 0 31 -6t25.5 -13.5t19.5 -13.5q22 -16 50 -25.5t62 -9.5q125 0 192.5 100t67.5 306v29q0 81 32 174t112 164q76 66 188 106l168 53q25 6 33 13l33 22l77 66v-545h-139zM455 2q-98 18 -129 69.5t-31 129.5v20v23l43 -58l15 -12l16 -10
q33 -25 92 -25z" />
    <glyph glyph-name="ACK" unicode="&#xf206;" horiz-adv-x="1616" 
d="M1532 866q-31 -28 -68 -28q-33 0 -64.5 28t-31.5 68q0 17 6 32.5t21 32.5q27 29 69 29q21 0 35.5 -6.5t32.5 -22.5q29 -29 29 -65q0 -38 -29 -68zM651 0v139h813v291q0 22 -14 39q-9 12 -31 16q-15 0 -33 -18h-24q0 58 35.5 93.5t83.5 35.5h8l57 92l58 82v-770h-953z
M987 166v309l-135 -43q-85 -28 -137 -80q-42 -43 -67 -113q-11 -34 -17 -68t-6 -69v-39q0 -225 -102.5 -347t-256.5 -122q-68 0 -125.5 30.5t-103.5 76.5l-35 37l14 6q14 0 19 2q17 0 31 -6t25.5 -13.5t19.5 -13.5q22 -16 50 -25.5t62 -9.5q125 0 192.5 100t67.5 306v29
q0 81 32 174t112 164q76 66 188 106l168 53q25 6 33 13l33 22l77 66v-545h-139zM455 2q-98 18 -129 69.5t-31 129.5v20v23l43 -58l15 -12l16 -10q33 -25 92 -25z" />
    <glyph glyph-name="parenleft" unicode="&#xf209;" horiz-adv-x="335" 
 />
    <glyph glyph-name="nonmarkingreturn" unicode="&#xf20c;" horiz-adv-x="30" 
d="M30 0h-30v1089h30v-1089z" />
    <glyph glyph-name="FF" unicode="&#xf20d;" horiz-adv-x="30" 
d="M107 1001l-20 -20l-57 57v-1038h-30v1037l-56 -56l-20 20l71 72l-71 71l20 20l71 -71l72 71l20 -20l-72 -71z" />
    <glyph glyph-name="SO" unicode="&#xf20e;" horiz-adv-x="30" 
d="M203 1073l-92 -92l-21 21l58 57h-118v-1059h-30v1089h145l-55 55l21 21z" />
    <glyph glyph-name="SI" unicode="&#xf20f;" horiz-adv-x="30" 
d="M30 0h-30v1059h-118l58 -57l-21 -21l-92 92l92 92l21 -21l-55 -55h145v-1089z" />
    <glyph glyph-name="DLE" unicode="&#xf210;" horiz-adv-x="2042" 
d="M1106 0l14 139h781v971q0 21 -15 39q-9 12 -31 16q-24 0 -57 -18q0 19 1 27t8 27t26 38q37 37 84 37h8l49 98l66 105v-1479h-934zM1450 166v309l-53 -12q-14 -4 -21.5 -6.5t-17.5 -7.5l-41 -14l-39 -15q-46 -18 -96 -66.5t-66 -99.5l-18 -68l-3 -36l-5 -35l-13 -107
q-9 -92 -63 -158q-29 -32 -58 -57q-34 -30 -71 -57l2 37l24 43l19 45q5 19 10 59l4 84l6 100q0 56 8 89q9 75 35.5 131t73 101.5t95.5 75.5t110 54l174 55l17 7l20 12q15 7 37 24l36 27l22 16l13 15v-545h-141zM918 0h-938v139h382q-65 38 -116 94l-46 52l-33 46l-33 64
l-40 92q-9 23 -17.5 53.5t-14 65t-8.5 77t-3 89.5v348l64 -86l57 -100h8q47 0 83 -36t36 -91q-14 11 -39 16h-20q-24 0 -43 -16q-18 -11 -21 -43v-19q0 -288 207 -447t491 -159h54z" />
    <glyph glyph-name="DC1" unicode="&#xf211;" horiz-adv-x="2042" 
d="M1106 0l14 139h781v971q0 21 -15 39q-9 12 -31 16q-24 0 -57 -18q0 19 1 27t8 27t26 38q37 37 84 37h8l49 98l66 105v-1479h-934zM1450 166v309l-53 -12q-14 -4 -21.5 -6.5t-17.5 -7.5l-41 -14l-39 -15q-46 -18 -96 -66.5t-66 -99.5l-18 -68l-3 -36l-5 -35l-13 -107
q-9 -92 -63 -158q-29 -32 -58 -57q-34 -30 -71 -57l2 37l24 43l19 45q5 19 10 59l4 84l6 100q0 56 8 89q9 75 35.5 131t73 101.5t95.5 75.5t110 54l174 55l17 7l20 12q15 7 37 24l36 27l22 16l13 15v-545h-141zM631 -368q-31 -28 -68 -28q-33 0 -64.5 28t-31.5 68
q0 36 27 66q28 28 69 28q19 0 34.5 -6t33.5 -22q28 -26 28 -66q0 -21 -6 -35t-22 -33zM918 0h-938v139h382q-65 38 -116 94l-46 52l-33 46l-33 64l-40 92q-9 23 -17.5 53.5t-14 65t-8.5 77t-3 89.5v348l64 -86l57 -100h8q47 0 83 -36t36 -91q-14 11 -39 16h-20
q-24 0 -43 -16q-18 -11 -21 -43v-19q0 -288 207 -447t491 -159h54z" />
    <glyph glyph-name="DC2" unicode="&#xf212;" horiz-adv-x="1090" 
d="M610 0q-146 0 -250 -30t-149 -58l-47 -35l-14 -16q0 -157 122 -273l113 -101q48 -41 94 -71q64 -45 172 -104q93 -47 127 -76q16 -14 27.5 -31t17.5 -36q-35 0 -241 85t-394 250t-188 385q0 22 53 72q55 47 149 98q44 24 90.5 42.5t98.5 31.5q-60 38 -135 111
q-30 33 -62 79q-27 42 -49 89q-37 89 -55 179t-18 181v358l53 -69l68 -117h8q44 0 81 -31.5t37 -97.5l-28 12q-16 7 -33 7q-23 0 -42 -16t-19 -46v-27q0 -204 109.5 -337.5t260.5 -202.5q69 -30 133 -50q61 -16 101 -16h149v1008q0 18 -12 39q-11 11 -33 16q-18 0 -57 -18
q0 58 35.5 93.5t83.5 35.5h10l55 86l60 88v-1487h-482zM524 -324q-26 -26 -67 -26q-21 0 -34 5.5t-18 9t-15 12.5q-13 12 -23 30q-7 18 -7 37q0 37 27 70q13 11 32 20q17 6 38 6q19 0 34 -6t31 -22q31 -28 31 -68q0 -36 -29 -68z" />
    <glyph glyph-name="DC3" unicode="&#xf213;" horiz-adv-x="1090" 
d="M610 0q-146 0 -250 -30t-149 -58l-47 -35l-14 -16q0 -157 122 -273l113 -101q48 -41 94 -71q64 -45 172 -104q93 -47 127 -76q16 -14 27.5 -31t17.5 -36q-35 0 -241 85t-394 250t-188 385q0 22 53 72q55 47 149 98q44 24 90.5 42.5t98.5 31.5q-60 38 -135 111
q-30 33 -62 79q-27 42 -49 89q-37 89 -55 179t-18 181v358l53 -69l68 -117h8q44 0 81 -31.5t37 -97.5l-28 12q-16 7 -33 7q-23 0 -42 -16t-19 -46v-27q0 -204 109.5 -337.5t260.5 -202.5q69 -30 133 -50q61 -16 101 -16h149v1008q0 18 -12 39q-11 11 -33 16q-18 0 -57 -18
q0 58 35.5 93.5t83.5 35.5h10l55 86l60 88v-1487h-482z" />
    <glyph glyph-name="DC4" unicode="&#xf214;" horiz-adv-x="1090" 
d="M610 0q-146 0 -250 -30t-149 -58l-47 -35l-14 -16q0 -157 122 -273l113 -101q48 -41 94 -71q64 -45 172 -104q93 -47 127 -76q16 -14 27.5 -31t17.5 -36q-35 0 -241 85t-394 250t-188 385q0 22 53 72q55 47 149 98q44 24 90.5 42.5t98.5 31.5q-60 38 -135 111
q-30 33 -62 79q-27 42 -49 89q-37 89 -55 179t-18 181v358l53 -69l68 -117h8q44 0 81 -31.5t37 -97.5l-28 12q-16 7 -33 7q-23 0 -42 -16t-19 -46v-27q0 -204 109.5 -337.5t260.5 -202.5q69 -30 133 -50q61 -16 101 -16h149v1008q0 18 -12 39q-11 11 -33 16q-18 0 -57 -18
q0 58 35.5 93.5t83.5 35.5h10l55 86l60 88v-1487h-482zM602 525q-10 -10 -33 -20q-22 -8 -42 -8q-19 0 -34.5 6t-30.5 19.5t-25 31.5q-7 18 -7 37q0 37 27 70q15 12 33 19t37 7t34 -6t31 -22q31 -28 31 -68q0 -28 -5 -40.5t-16 -25.5z" />
    <glyph glyph-name="NAK" unicode="&#xf215;" horiz-adv-x="1134" 
d="M551 0q0 -230 -76 -328q-71 -92 -131 -133q-55 -37 -131 -61q-23 -7 -45 -12t-39.5 -8t-39 -5t-46.5 -2q-29 0 -43 6l154 84q13 9 25.5 16.5t25.5 18.5q21 15 47 43q16 16 46 57l56 84q60 95 60 285v389q0 21 -11.5 33.5t-33.5 17.5q-21 0 -35 -6l-23 -12q0 60 37.5 94.5
t81.5 34.5h8l49 88l68 86v-631h152v-139h-156zM594 0v139h281v291q0 22 -17 39q-9 12 -28 16q-18 0 -35 -6l-25 -12q0 47 37 90q16 16 39 29q23 10 45 10h8l115 174v-631h149v-139h-569zM958 -283q-34 -26 -67 -26q-21 0 -35 6t-33 22q-28 26 -28 66q0 41 28 70q34 26 68 26
q19 0 34 -6t31 -22q29 -29 29 -68q0 -36 -27 -68z" />
    <glyph glyph-name="SYN" unicode="&#xf216;" horiz-adv-x="1134" 
d="M551 0q0 -230 -76 -328q-71 -92 -131 -133q-55 -37 -131 -61q-23 -7 -45 -12t-39.5 -8t-39 -5t-46.5 -2q-29 0 -43 6l154 84q13 9 25.5 16.5t25.5 18.5q21 15 47 43q16 16 46 57l56 84q60 95 60 285v389q0 21 -11.5 33.5t-33.5 17.5q-21 0 -35 -6l-23 -12q0 60 37.5 94.5
t81.5 34.5h8l49 88l68 86v-631h152v-139h-156zM594 0v139h281v291q0 22 -17 39q-9 12 -28 16q-18 0 -35 -6l-25 -12q0 47 37 90q16 16 39 29q23 10 45 10h8l115 174v-631h149v-139h-569zM1038 956q-34 -26 -67 -26q-19 0 -34.5 6t-33.5 22q-28 26 -28 66q0 41 28 70
q34 26 68 26q19 0 34 -6t31 -22q29 -29 29 -68q0 -36 -27 -68zM827 956q-34 -26 -67 -26q-19 0 -34.5 6t-33.5 22q-28 26 -28 66q0 41 28 70q34 26 68 26q19 0 34 -6t31 -22q29 -29 29 -68q0 -36 -27 -68z" />
    <glyph glyph-name="ETB" unicode="&#xf217;" horiz-adv-x="1134" 
d="M551 0q0 -230 -76 -328q-71 -92 -131 -133q-55 -37 -131 -61q-23 -7 -45 -12t-39.5 -8t-39 -5t-46.5 -2q-29 0 -43 6l154 84q13 9 25.5 16.5t25.5 18.5q21 15 47 43q16 16 46 57l56 84q60 95 60 285v389q0 21 -11.5 33.5t-33.5 17.5q-21 0 -35 -6l-23 -12q0 60 37.5 94.5
t81.5 34.5h8l49 88l68 86v-631h152v-139h-156zM594 0v139h281v291q0 22 -17 39q-9 12 -28 16q-18 0 -35 -6l-25 -12q0 47 37 90q16 16 39 29q23 10 45 10h8l115 174v-631h149v-139h-569zM1038 -283q-34 -26 -67 -26q-21 0 -35 6t-33 22q-28 26 -28 66q0 41 28 70
q34 26 68 26q19 0 34 -6t31 -22q29 -29 29 -68q0 -36 -27 -68zM827 -283q-34 -26 -67 -26q-21 0 -35 6t-33 22q-28 26 -28 66q0 41 28 70q34 26 68 26q19 0 34 -6t31 -22q29 -29 29 -68q0 -36 -27 -68z" />
    <glyph glyph-name="CAN" unicode="&#xf218;" horiz-adv-x="1911" 
d="M272 0l15 139h600v-139h-615zM616 166v309l-75 -18l-82 -31q-59 -23 -115 -76q-45 -45 -65 -102l-19 -76l-4 -57l-12 -107q-12 -92 -66 -158q-23 -28 -57 -58q-27 -26 -70 -56l23 59q12 28 24.5 72t12.5 137l6 100l6 89q23 145 92 217q19 19 30 29t31 27q14 11 35 25
q14 9 20 13l53 29q11 5 26 11.5t28 10.5l174 55l17 7q7 2 20 12l21 12l22 16l29 21l35 33v-545h-140zM84 0h-104v139h114zM1843 -76q-77 -104 -241 -104h-138v180h-667v139h290v295q0 26 -14 37q-9 10 -29 14h-24l-35 -18q0 55 35.5 91t83.5 36h8l72 108l43 68v-631h237v295
q0 26 -14 37q-9 10 -29 14q-17 0 -35 -6l-24 -12q0 8 0.5 18.5t8 29.5t26.5 40q36 39 84 39h8l59 104l56 72v-811h8q86 0 121 57q32 59 32 164v254q0 26 -14 37q-9 10 -29 14q-17 0 -34 -6l-25 -12q0 8 0.5 18.5t8 29.5t26.5 40q36 39 84 39h8l61 100l54 76v-590
q0 -160 -62 -256z" />
    <glyph glyph-name="EM" unicode="&#xf219;" horiz-adv-x="1911" 
d="M272 0l15 139h600v-139h-615zM616 166v309l-75 -18l-82 -31q-59 -23 -115 -76q-45 -45 -65 -102l-19 -76l-4 -57l-12 -107q-12 -92 -66 -158q-23 -28 -57 -58q-27 -26 -70 -56l23 59q12 28 24.5 72t12.5 137l6 100l6 89q23 145 92 217q19 19 30 29t31 27q14 11 35 25
q14 9 20 13l53 29q11 5 26 11.5t28 10.5l174 55l17 7q7 2 20 12l21 12l22 16l29 21l35 33v-545h-140zM84 0h-104v139h114zM1591 1087q-28 -28 -67 -28q-34 0 -65.5 28.5t-31.5 67.5q0 35 27 68q34 28 70 28q33 0 65 -30q29 -32 29 -66q0 -39 -27 -68zM1735 901
q-24 -21 -68 -27q-35 0 -68 27q-28 31 -28 68q0 33 28 64.5t68 31.5q33 0 64.5 -28t31.5 -68t-28 -68zM1462 901q-21 -21 -67 -27q-35 0 -68 27q-13 14 -21 31q-4 9 -6 17.5t-2 19.5q0 35 27 67q32 29 70 29q19 0 31 -5t18.5 -9.5t15.5 -14.5q29 -27 29 -67q0 -39 -27 -68z
M1843 -76q-77 -104 -241 -104h-138v180h-667v139h290v295q0 26 -14 37q-9 10 -29 14h-24l-35 -18q0 55 35.5 91t83.5 36h8l72 108l43 68v-631h237v295q0 26 -14 37q-9 10 -29 14q-17 0 -35 -6l-24 -12q0 8 0.5 18.5t8 29.5t26.5 40q36 39 84 39h8l59 104l56 72v-811h8
q86 0 121 57q32 59 32 164v254q0 26 -14 37q-9 10 -29 14q-17 0 -34 -6l-25 -12q0 8 0.5 18.5t8 29.5t26.5 40q36 39 84 39h8l61 100l54 76v-590q0 -160 -62 -256z" />
    <glyph glyph-name="SUB" unicode="&#xf21a;" horiz-adv-x="1736" 
d="M1352 0v139h241v971q0 23 -16 39q-9 12 -29 16q-16 0 -31 -6l-15 -6l-13 -6q0 19 1 27t8 27t26 38q37 37 84 37h10l65 119l49 84v-1479h-380zM571 166v508q0 21 -11 32q-9 12 -32 19q-16 0 -23 -1t-16 -7l-22 -12q0 19 1 27t8 27t26 38q37 37 84 37h8l53 84l64 92v-844
h-140zM303 0l-4 27l-4 43l4 43l4 26h715q-12 103 -87 182t-188 111v143q172 -36 298 -158t126 -278h127v-139h-991zM635 -444q-213 0 -365 155q-73 78 -111 168t-38 191q0 177 116.5 321.5t301.5 186.5v-146q-111 -30 -195 -137t-84 -225q0 -133 85.5 -237.5t225.5 -131.5
v272h140v-413zM-20 0v139h112l-4 -35l-2 -34v-27q0 -14 4 -27l2 -16h-112z" />
    <glyph glyph-name="FS" unicode="&#xf21c;" horiz-adv-x="1631" 
d="M1135 682q-56 -129 -157.5 -210t-154.5 -107l-58 -25l-71 -25l-110 111q27 5 53 10.5t50 12.5q42 11 62 19l36 15q16 6 24 13l29 17l59 42q68 47 136.5 171.5t68.5 270.5q0 126 -92 263q-87 129 -172 157q18 6 41 6l34 -3q6 -1 16.5 -4t18.5 -7q27 -9 82 -49
q44 -33 103 -119l34 64l35 59v-262q0 -262 -67 -420zM1155 0q-54 0 -89 23q-33 24 -60 69l-134 266l29 15l31 20l55 51l135 -270l7 -11l12 -11q7 -5 30 -13h215v-139h-231zM854 563l-63 -39l-162 326l-23 31l-20 10l-23 -10l-33 -29l-151 -152l-37 -26q-24 -12 -35 -12
l377 -377q27 -24 48 -57q20 -28 38 -74q35 -79 35 -154q0 -159 -118 -278t-281 -119q-165 0 -285 116q-57 57 -87 127q-14 36 -21 72.5t-7 81.5q0 140 96 250q96 101 246 131l115 -115h-49q-105 0 -187 -78.5t-82 -187.5q0 -103 75.5 -180.5t185.5 -77.5q102 0 182 76
q35 35 56 82q10 23 15 47t5 53q0 64 -17 98q-12 37 -55 84l-565 566l34 -5l29 -2l55 3q12 2 25 4.5t28 6.5q27 8 51 20.5t42 33.5l141 141q90 90 154 90q47 0 92 -30q37 -29 65 -78l162 -322q-8 -13 -51 -47zM592 -612q-29 -29 -70 -29q-18 0 -35 6q-15 7 -30 23
q-31 25 -31 65q0 36 27 68q28 28 69 28q40 0 68 -28q14 -17 21 -33t7 -35q0 -36 -26 -65zM381 -612q-29 -29 -70 -29q-18 0 -35 6q-15 7 -30 23q-31 25 -31 65q0 36 27 68q28 28 69 28q40 0 68 -28q14 -15 21 -33q4 -9 6 -16.5t2 -18.5q0 -33 -27 -65zM1254 0v139h241v971
q0 23 -16 39q-9 12 -29 16q-16 0 -31 -6l-15 -6l-13 -6q0 19 1 27t8 27t26 38q37 37 84 37h10l65 119l49 84v-1479h-380z" />
    <glyph glyph-name="GS" unicode="&#xf21d;" horiz-adv-x="1792" 
d="M1135 682q-56 -129 -157.5 -210t-154.5 -107l-58 -25l-71 -25l-110 111q27 5 53 10.5t50 12.5q42 11 62 19l36 15q16 6 24 13l29 17l59 42q68 47 136.5 171.5t68.5 270.5q0 126 -92 263q-87 129 -172 157q18 6 41 6l34 -3q6 -1 16.5 -4t18.5 -7q27 -9 82 -49
q44 -33 103 -119l34 64l35 59v-262q0 -262 -67 -420zM1155 0q-54 0 -89 23q-33 24 -60 69l-134 266l29 15l31 20l55 51l135 -270l7 -11l12 -11q7 -5 30 -13h215v-139h-231zM854 563l-63 -39l-162 326l-23 31l-20 10l-23 -10l-33 -29l-151 -152l-37 -26q-24 -12 -35 -12
l377 -377q27 -24 48 -57q20 -28 38 -74q35 -79 35 -154q0 -159 -118 -278t-281 -119q-165 0 -285 116q-57 57 -87 127q-14 36 -21 72.5t-7 81.5q0 140 96 250q96 101 246 131l115 -115h-49q-105 0 -187 -78.5t-82 -187.5q0 -103 75.5 -180.5t185.5 -77.5q102 0 182 76
q35 35 56 82q10 23 15 47t5 53q0 64 -17 98q-12 37 -55 84l-565 566l34 -5l29 -2l55 3q12 2 25 4.5t28 6.5q27 8 51 20.5t42 33.5l141 141q90 90 154 90q47 0 92 -30q37 -29 65 -78l162 -322q-8 -13 -51 -47zM592 -612q-29 -29 -70 -29q-18 0 -35 6q-15 7 -30 23
q-31 25 -31 65q0 36 27 68q28 28 69 28q40 0 68 -28q14 -17 21 -33t7 -35q0 -36 -26 -65zM381 -612q-29 -29 -70 -29q-18 0 -35 6q-15 7 -30 23q-31 25 -31 65q0 36 27 68q28 28 69 28q40 0 68 -28q14 -15 21 -33q4 -9 6 -16.5t2 -18.5q0 -33 -27 -65zM1487 -374
q-16 -17 -34.5 -28t-38.5 -11q-17 0 -36 17q-12 11 -23 21q-31 28 -31 68q0 37 26 66q24 23 70 29q36 0 65 -29t29 -66q0 -40 -27 -67zM1259 0v139h281v291q0 22 -17 39q-9 12 -28 16q-18 0 -35 -6l-25 -12q0 47 37 90q16 16 39 29q23 10 45 10h8l115 174v-631h149v-139
h-569z" />
    <glyph glyph-name="RS" unicode="&#xf21e;" horiz-adv-x="1792" 
d="M1135 682q-56 -129 -157.5 -210t-154.5 -107l-58 -25l-71 -25l-110 111q27 5 53 10.5t50 12.5q42 11 62 19l36 15q16 6 24 13l29 17l59 42q68 47 136.5 171.5t68.5 270.5q0 126 -92 263q-87 129 -172 157q18 6 41 6l34 -3q6 -1 16.5 -4t18.5 -7q27 -9 82 -49
q44 -33 103 -119l34 64l35 59v-262q0 -262 -67 -420zM1155 0q-54 0 -89 23q-33 24 -60 69l-134 266l29 15l31 20l55 51l135 -270l7 -11l12 -11q7 -5 30 -13h215v-139h-231zM854 563l-63 -39l-162 326l-23 31l-20 10l-23 -10l-33 -29l-151 -152l-37 -26q-24 -12 -35 -12
l377 -377q27 -24 48 -57q20 -28 38 -74q35 -79 35 -154q0 -159 -118 -278t-281 -119q-165 0 -285 116q-57 57 -87 127q-14 36 -21 72.5t-7 81.5q0 140 96 250q96 101 246 131l115 -115h-49q-105 0 -187 -78.5t-82 -187.5q0 -103 75.5 -180.5t185.5 -77.5q102 0 182 76
q35 35 56 82q10 23 15 47t5 53q0 64 -17 98q-12 37 -55 84l-565 566l34 -5l29 -2l55 3q12 2 25 4.5t28 6.5q27 8 51 20.5t42 33.5l141 141q90 90 154 90q47 0 92 -30q37 -29 65 -78l162 -322q-8 -13 -51 -47zM592 -612q-29 -29 -70 -29q-18 0 -35 6q-15 7 -30 23
q-31 25 -31 65q0 36 27 68q28 28 69 28q40 0 68 -28q14 -17 21 -33t7 -35q0 -36 -26 -65zM381 -612q-29 -29 -70 -29q-18 0 -35 6q-15 7 -30 23q-31 25 -31 65q0 36 27 68q28 28 69 28q40 0 68 -28q14 -15 21 -33q4 -9 6 -16.5t2 -18.5q0 -33 -27 -65zM1703 928
q-27 -29 -67 -29q-33 0 -64.5 28t-31.5 68q0 37 26 66q24 23 70 29q36 0 65 -29t29 -66q0 -40 -27 -67zM1492 928q-27 -29 -67 -29q-33 0 -64.5 28t-31.5 68q0 37 26 66q24 23 70 29q36 0 65 -29t29 -66q0 -40 -27 -67zM1259 0v139h281v291q0 22 -17 39q-9 12 -28 16
q-18 0 -35 -6l-25 -12q0 47 37 90q16 16 39 29q23 10 45 10h8l115 174v-631h149v-139h-569z" />
    <glyph glyph-name="US" unicode="&#xf21f;" horiz-adv-x="1792" 
d="M1135 682q-56 -129 -157.5 -210t-154.5 -107l-58 -25l-71 -25l-110 111q27 5 53 10.5t50 12.5q42 11 62 19l36 15q16 6 24 13l29 17l59 42q68 47 136.5 171.5t68.5 270.5q0 126 -92 263q-87 129 -172 157q18 6 41 6l34 -3q6 -1 16.5 -4t18.5 -7q27 -9 82 -49
q44 -33 103 -119l34 64l35 59v-262q0 -262 -67 -420zM1155 0q-54 0 -89 23q-33 24 -60 69l-134 266l29 15l31 20l55 51l135 -270l7 -11l12 -11q7 -5 30 -13h215v-139h-231zM854 563l-63 -39l-162 326l-23 31l-20 10l-23 -10l-33 -29l-151 -152l-37 -26q-24 -12 -35 -12
l377 -377q27 -24 48 -57q20 -28 38 -74q35 -79 35 -154q0 -159 -118 -278t-281 -119q-165 0 -285 116q-57 57 -87 127q-14 36 -21 72.5t-7 81.5q0 140 96 250q96 101 246 131l115 -115h-49q-105 0 -187 -78.5t-82 -187.5q0 -103 75.5 -180.5t185.5 -77.5q102 0 182 76
q35 35 56 82q10 23 15 47t5 53q0 64 -17 98q-12 37 -55 84l-565 566l34 -5l29 -2l55 3q12 2 25 4.5t28 6.5q27 8 51 20.5t42 33.5l141 141q90 90 154 90q47 0 92 -30q37 -29 65 -78l162 -322q-8 -13 -51 -47zM592 -612q-29 -29 -70 -29q-18 0 -35 6q-15 7 -30 23
q-31 25 -31 65q0 36 27 68q28 28 69 28q40 0 68 -28q14 -17 21 -33t7 -35q0 -36 -26 -65zM381 -612q-29 -29 -70 -29q-18 0 -35 6q-15 7 -30 23q-31 25 -31 65q0 36 27 68q28 28 69 28q40 0 68 -28q14 -15 21 -33q4 -9 6 -16.5t2 -18.5q0 -33 -27 -65zM1703 928
q-27 -29 -67 -29q-33 0 -64.5 28t-31.5 68q0 37 26 66q24 23 70 29q36 0 65 -29t29 -66q0 -40 -27 -67zM1259 0v139h281v291q0 22 -17 39q-9 12 -28 16q-18 0 -35 -6l-25 -12q0 47 37 90q16 16 39 29q23 10 45 10h8l115 174v-631h149v-139h-569z" />
    <glyph glyph-name="less" unicode="&#xf220;" horiz-adv-x="335" 
 />
    <glyph glyph-name="equal" unicode="&#xf221;" horiz-adv-x="569" 
d="M430 793l-37 -205l-12 -103l-4 -90v-84h-166v84q0 30 -2 48t-3 28l-7 66q-1 12 -4 27.5t-7 33.5l-38 193q-23 113 -23 153q0 87 49 137q23 23 52 37.5t61 14.5q63 0 111.5 -54t48.5 -135q0 -12 -1 -27t-4 -34q0 -16 -3.5 -38t-10.5 -52zM373 41q-18 -18 -37 -27.5
t-47 -9.5q-51 0 -86 36.5t-35 84.5q0 51 35 86t86 35q21 0 42 -9q23 -8 42 -26q35 -40 35 -86q0 -49 -35 -84z" />
    <glyph glyph-name="greater" unicode="&#xf222;" horiz-adv-x="685" 
d="M243 774h54v-288h-54v288zM387 774h56v-288h-56v288z" />
    <glyph glyph-name="question" unicode="&#xf223;" horiz-adv-x="557" 
d="M205 603h95l-149 -299v-12l146 -301h-96l-149 301v12zM408 603h94l-148 -299v-12l146 -301h-96l-149 301v12z" />
    <glyph glyph-name="at" unicode="&#xf224;" horiz-adv-x="557" 
d="M152 -9h-96l147 301v12l-149 299h94l153 -299v-12zM355 -9h-96l146 301v12l-149 299h95l153 -299v-12z" />
    <glyph glyph-name="A" unicode="&#xf225;" horiz-adv-x="669" 
d="M128 844q0 -19 -14 -33.5t-32 -14.5q-20 0 -34 13q-12 14 -15 35q0 17 14.5 32t34.5 15q18 0 32 -14q14 -12 14 -33zM541 54q0 -20 -12.5 -32.5t-34.5 -12.5q-19 0 -33.5 12t-14.5 33q0 19 14 33t36 14q18 0 31.5 -12.5t13.5 -34.5zM193 -9h-133l412 958h134z" />
    <glyph glyph-name="B" unicode="&#xf226;" horiz-adv-x="558" 
d="M169 215l-129 129l141 141l-130 131l65 66l132 -129l129 128l129 -128l-129 -129l130 -132l-65 -66l-132 131z" />
    <glyph glyph-name="C" unicode="&#xf227;" horiz-adv-x="484" 
d="M175 660q0 21 16 37t36 16q21 0 36.5 -15.5t15.5 -37.5q0 -19 -14.5 -35.5t-37.5 -16.5q-20 0 -36 15t-16 37zM178 285q0 17 15 34.5t37 17.5q19 0 35.5 -15.5t16.5 -36.5q0 -19 -15.5 -35.5t-36.5 -16.5q-18 0 -36 15q-16 16 -16 37zM54 382v181h367v-181h-367z" />
    <glyph glyph-name="D" unicode="&#xf228;" horiz-adv-x="304" 
d="M80 976h171l-51 -205q-14 -66 -28 -172l-7 -98l-3 -111q0 -137 8 -205q1 -18 3 -38.5t8 -48.5l18 -87l52 -206h-171v1171z" />
    <glyph glyph-name="E" unicode="&#xf229;" horiz-adv-x="304" 
d="M54 976h171v-1171h-171l50 206l16 87l12 91l8 92l3 109q0 128 -8 206.5t-31 173.5l-16 66z" />
    <glyph glyph-name="F" unicode="&#xf22a;" horiz-adv-x="304" 
d="M290 494q0 -20 -26 -20l-18 2l-24 5l-37 7l-2 -7l-2 -6l28 -20l16 -11q15 -10 20 -16l10 -19q0 -6 -5 -14l-14 -5q-8 0 -19 10l-12 14l-14 22l-20 30l-8 -4l-4 -2l6 -35l6 -31l2 -12q0 -26 -22 -26q-19 0 -19 25l1 14l6 30l9 35l-7 2l-7 4l-21 -30l-11 -16
q-7 -13 -14.5 -20t-19.5 -10q-8 0 -14 5l-6 14q0 5 9 17l16 14l21 13l32 22l-2 4l-4 9l-36 -7l-26 -5l-17 -2q-26 0 -26 20t25 20l24 -3l20 -4l36 -8l2 6l4 5l-32 23l-20 13l-16 13q-7 7 -10 18l6 14q6 6 14 6q9 0 19 -10l11 -15l15 -21l21 -30l14 6l-9 35l-5 23l-2 12v9
q0 10 5 18q6 6 14 7q12 0 16 -7q3 -3 6 -20l-3 -18l-5 -24l-6 -37l12 -4l20 30l13 20l13 16q6 6 19 9q5 0 12 -5.5t7 -13.5q0 -9 -10 -19l-20 -15l-16 -11l-14 -11l-16 -11l7 -11l36 8l30 6l14 1q24 0 24 -20zM170 493q0 6 -5 11l-12 6l-6 -2l-6 -4l-5 -11l5 -11l12 -5
q6 0 11 4.5t6 11.5z" />
    <glyph glyph-name="G" unicode="&#xf22b;" horiz-adv-x="484" 
d="M54 382v181h141v150h81v-150h145v-181h-145v-149h-81v149h-141z" />
    <glyph glyph-name="H" unicode="&#xf22c;" horiz-adv-x="279" 
d="M48 -9v291h161v-55q-36 0 -54 -15t-33 -50q40 0 73 -24q14 -12 21 -29t7 -33q0 -28 -23.5 -56.5t-63.5 -28.5h-88z" />
    <glyph glyph-name="I" unicode="&#xf22d;" horiz-adv-x="484" 
d="M54 382v181h367v-181h-367z" />
    <glyph glyph-name="J" unicode="&#xf22e;" horiz-adv-x="279" 
d="M56 59q0 32 24 58t60 26q32 0 57.5 -24.5t25.5 -59.5q0 -33 -25 -58.5t-58 -25.5q-30 0 -59 24q-25 25 -25 60z" />
    <glyph glyph-name="K" unicode="&#xf22f;" horiz-adv-x="711" 
d="M229 -9h-133l412 958h134z" />
    <glyph glyph-name="L" unicode="&#xf230;" horiz-adv-x="459" 
d="M225 496q-56 0 -100 39q-17 18 -29 44q-10 27 -10 56q0 60 40 99.5t99 39.5q61 0 99 -41q41 -38 41 -98q0 -59 -40 -99q-20 -20 -44 -30t-56 -10z" />
    <glyph glyph-name="M" unicode="&#xf231;" horiz-adv-x="330" 
d="M212 188q-16 -70 -38 -124t-50 -97q-40 -57 -90 -96h-39l31 53l32 84l12 49l19 86q3 15 7 42.5t10 86.5t6 144v598l139 139v-573q0 -120 -9 -213.5t-30 -178.5z" />
    <glyph glyph-name="N" unicode="&#xf232;" horiz-adv-x="858" 
d="M858 1194q-24 -89 -102 -143q-34 -23 -120 -37.5t-206 -14.5h-139v-419q0 -129 -8 -212q0 -44 -8 -87q-4 -22 -19 -78q-11 -42 -18.5 -68.5t-19.5 -54.5q-18 -50 -45 -91.5t-51 -68.5t-52 -49h-37l30 53q30 68 62 203q9 54 19 137q4 39 6 74.5t2 77.5v598l124 125h318
q108 0 154 20l39 17l32 20q23 15 43 41z" />
    <glyph glyph-name="O" unicode="&#xf233;" horiz-adv-x="954" 
d="M905 547q-47 -78 -164 -78q-47 0 -98 18q-20 8 -23 9.5t-20 13t-37 31.5l-14 -17l-12 -12l-45 -29q-14 -5 -38 -10l-51 -4q-64 0 -110 20q0 -192 -37 -321q-19 -69 -40 -117t-44 -78q-43 -60 -98 -102h-37l31 53l32 84l12 49l19 86q3 15 7 42.5t10 86.5t6 144v598
l139 139v-471q0 -33 31 -55q10 -8 30.5 -13.5t36.5 -5.5q55 0 74 41q18 32 18 101v264l140 139v-403q0 -57 28 -101q15 -20 35 -30.5t43 -10.5q36 0 55 24.5t19 117.5v264l139 139v-403q0 -135 -37 -203z" />
    <glyph glyph-name="P" unicode="&#xf234;" horiz-adv-x="1014" 
d="M970 186q-16 -47 -34.5 -80t-43.5 -51q-92 -65 -352 -65h-400l-65 133l405 405l31 37l5 14l5 17q0 27 -45 66l-51 40l-393 308l129 131h393q128 0 174 26l41 24l23 17l28 29l-2 -41q-30 -100 -77 -129q-94 -68 -353 -68h-114l241 -188l62 -52q27 -24 48 -51
q20 -23 31 -49q5 -11 8 -22.5t3 -24.5q0 -57 -19 -94q-15 -34 -55 -74l-315 -315h422q130 0 184 33q50 26 88 63z" />
    <glyph glyph-name="Q" unicode="&#xf235;" horiz-adv-x="891" 
d="M763 80q-71 -90 -213 -90h-254q-127 0 -182 71q-51 74 -51 193l2 41l4 59l53 482q6 50 21 92q6 21 21 51q7 14 18.5 33t25.5 41q50 86 144 86q84 0 188.5 -89.5t149.5 -236.5l127 -455q2 -9 4.5 -26.5t3.5 -26.5q0 -31 2 -33q0 -116 -64 -192zM679 326l-127 454
q-12 50 -32 82q-10 20 -27 39q-13 17 -43 47q-51 51 -98 51q-23 0 -56 -63q-13 -28 -21 -60t-13 -67l-54 -481l-4 -29v-31q0 -69 21 -105q22 -34 71 -34h254q56 0 101 61q30 53 30 111z" />
    <glyph glyph-name="R" unicode="&#xf236;" horiz-adv-x="883" 
d="M819 -131q-49 33 -95.5 108t-85 226t-38.5 377v419h-140q-138 0 -214 11.5t-111 36.5q-66 48 -105 147v41l27 -31q77 -65 238 -65h319l125 -125v-598q0 -169 25 -293q12 -66 24 -105q11 -41 22 -63l14 -33l15 -31l15 -22h-35z" />
    <glyph glyph-name="S" unicode="&#xf237;" horiz-adv-x="942" 
d="M769 895l-56 -133l-38 -107l-51 -186l-28 -124l-25 -128l-15 -121q-6 -60 -6 -106h-137l-3 102q0 22 -1 32.5t-10 53.5q-12 77 -27 135q-13 64 -31 131l-63 209q-49 150 -107 256q-24 53 -51.5 97.5t-56.5 74.5v113q85 -76 184 -215q50 -67 87.5 -134t62.5 -130
q44 -121 82 -269l12 56l10 40l12 33l37 117q24 66 61 137q17 33 40 71.5t49 75.5q53 78 98.5 132.5t81.5 85.5v-102q-43 -56 -111 -197z" />
    <glyph glyph-name="T" unicode="&#xf238;" horiz-adv-x="961" 
d="M710 184q-51 72 -91 143q-19 35 -33.5 65t-28.5 65q-44 120 -82 268l-7 -34l-8 -23q-2 -11 -6.5 -28t-13.5 -44l-37 -117q-23 -64 -62.5 -139t-88.5 -145q-99 -144 -181 -220v105q18 22 50 78q15 26 31 57.5t34 68.5q14 30 32 70t26.5 61.5t17.5 48.5q4 12 16 50l51 188
l28 127l23 121l17 122q6 60 6 110h137l3 -104q0 -23 4.5 -47t7.5 -38l12 -73l14 -64l31 -131l63 -209q22 -68 42 -120.5t44 -100.5l31 -57l43 -74q32 -47 56 -74v-113q-86 77 -181 207z" />
    <glyph glyph-name="U" unicode="&#xf239;" horiz-adv-x="1038" 
d="M997 -141q-29 19 -52 40t-48 52q-38 44 -82 160q-16 53 -27 126q-4 31 -7 74.5t-3 81.5q-83 -18 -168 -18q-158 0 -277 54.5t-159 170.5l-18 78l-6 78q0 91 26.5 169t81.5 150t114 108t122 36h20q165 0 285 -150q57 -74 88 -172.5t31 -222.5v-268q0 -170 18.5 -265
t30.5 -129l30 -78l27 -55q10 -13 12 -20h-39zM778 674q0 184 -80.5 293.5t-183.5 109.5h-20q-66 0 -135.5 -90.5t-69.5 -206.5l6 -69l5 -22l5 -11q0 -8 25 -49q18 -35 105 -75t200 -40l80 4l32 4l31 10v142z" />
    <glyph glyph-name="V" unicode="&#xf23a;" horiz-adv-x="279" 
d="M56 59q0 32 24 58t60 26q32 0 57.5 -24.5t25.5 -59.5q0 -33 -25 -58.5t-58 -25.5q-30 0 -59 24q-25 25 -25 60zM56 276q0 33 24 60q25 25 60 25q33 0 58 -25t25 -60q0 -32 -25 -57.5t-58 -25.5t-60 24q-24 26 -24 59z" />
    <glyph glyph-name="W" unicode="&#xf23b;" horiz-adv-x="279" 
d="M52 59q0 32 24 58t60 26q32 0 57.5 -24.5t25.5 -59.5q0 -33 -25 -58.5t-58 -25.5q-30 0 -59 24q-25 25 -25 60zM48 193v292h161v-55q-36 0 -54 -15t-33 -50q40 0 73 -24q28 -26 28 -62q0 -31 -23 -58.5t-64 -27.5h-88z" />
    <glyph glyph-name="X" unicode="&#xf23c;" horiz-adv-x="381" 
d="M353 782q-44 -40 -63 -67q-26 -41 -26 -81l1 -14q40 0 61 -19t21 -49q0 -24 -18.5 -43t-45.5 -19q-30 0 -54 27q-9 14 -15 30l-5 25v15q0 60 28 110t95 107zM172 782q-40 -37 -62 -67q-26 -40 -26 -81v-14q39 0 61 -19t22 -49q0 -24 -18.5 -43t-46.5 -19q-27 0 -53 27
l-16 30l-5 25v15q0 60 28 110t95 107z" />
    <glyph glyph-name="Y" unicode="&#xf23d;" horiz-adv-x="484" 
d="M421 361h-367v91h367v-91zM421 493h-367v92h367v-92z" />
    <glyph glyph-name="Z" unicode="&#xf23e;" horiz-adv-x="381" 
d="M353 708q0 -60 -27 -108t-97 -110l-20 23q37 33 62 67q26 40 26 80l-1 15q-38 0 -62 18q-20 18 -20 50q0 20 18 40.5t46 20.5q30 0 53 -27q7 -8 16 -28q6 -17 6 -41zM172 708q0 -56 -27 -109q-28 -47 -96 -109l-21 23q40 37 62 67q26 38 26 80v15q-38 0 -60.5 18.5
t-22.5 49.5q0 24 18.5 42.5t46.5 18.5q29 0 53 -27q11 -12 15 -27l5 -20z" />
    <glyph glyph-name="bracketleft" unicode="&#xf23f;" horiz-adv-x="770" 
d="M629 780q-50 -53 -119 -53q-51 0 -91 37t-40 96q0 51 31 86l69 70q-12 31 -88 31q-43 0 -72 -29q-12 -12 -19 -32.5t-7 -41.5q0 -29 1 -54t5 -55.5t16 -52.5l50 -80l49 -61q16 -17 32 -43q14 -19 24 -46t16 -56.5t6 -61.5q0 -20 -25 -96l-25 -66h-127l15 54l8 36l6 33v33
l-14 39q-6 21 -27 39l-78 61q-32 27 -65 63q-28 34 -51 76q-20 40 -34 82q-12 41 -12 84q0 119 99.5 217.5t228.5 98.5q111 0 199 -80t88 -193q0 -80 -49 -135zM473 14q-34 -34 -86 -34q-43 0 -84 34q-35 40 -35 86q0 48 33 84q35 35 86 35t86 -35q35 -33 35 -84t-35 -86z
" />
    <glyph glyph-name="backslash" unicode="&#xf240;" horiz-adv-x="352" 
d="M390 0h-408v140h408v-140z" />
    <glyph glyph-name="bracketright" unicode="&#xf241;" horiz-adv-x="362" 
d="M334 1165q-8 0 -15 -3t-18 -13q-12 -18 -12 -39v-1151q0 -214 -54 -319t-106.5 -158t-101.5 -53l34 57l15 23l12 22l9 24l12 31q12 33 24 117q3 23 6.5 52.5t3.5 54.5l4 149v1520l68 -105l47 -98h10q44 0 81.5 -36.5t37.5 -92.5q-30 18 -57 18z" />
    <glyph glyph-name="asciicircum" unicode="&#xf242;" horiz-adv-x="399" 
d="M150 0v1479l67 -101l47 -102h10q44 0 81.5 -36.5t37.5 -92.5l-31 12q-12 6 -26 6q-8 0 -15 -3t-18 -13q-12 -18 -12 -39v-971h170v-139h-311z" />
    <glyph glyph-name="underscore" unicode="&#xf243;" horiz-adv-x="367" 
d="M340 1587q-40 -6 -94 -31q-20 -9 -40.5 -17t-41.5 -15l-27 -5l-28 -3h-46l54 81l33 7q-28 14 -54 63q-18 47 -18 105q49 0 90 28l37 19l26 8q43 0 84 -39l31 -41l-20 -21l-25 13q-27 12 -65 12q-8 0 -17 -4l-23 -14q-12 -8 -20 -27q0 -11 31 -33q25 -15 63 -20l78 16
l30 4l52 4zM334 1165q-8 0 -15 -3t-18 -13q-12 -18 -12 -39v-1151q0 -214 -54 -319t-106.5 -158t-101.5 -53l34 57l15 23l12 22l9 24l12 31q12 33 24 117q3 23 6.5 52.5t3.5 54.5l4 149v1520l68 -105l47 -98h10q44 0 81.5 -36.5t37.5 -92.5q-30 18 -57 18z" />
    <glyph glyph-name="grave" unicode="&#xf244;" horiz-adv-x="399" 
d="M332 1620q-20 -3 -50 -13t-35 -12q-18 -9 -27 -13t-34 -14q-18 -7 -32 -12q-30 -8 -54 -8h-45l54 82l30 6q-31 20 -51 62q-9 20 -15 48q-3 20 -4 29t-1 29q24 0 41 4.5t27.5 10t23.5 14.5q44 24 61 27q45 0 84 -39l33 -41l-23 -23l-22 15q-32 12 -68 12q-9 0 -17 -4
l-20 -13q-15 -10 -20 -28q0 -13 28 -32q15 -10 30.5 -15.5t33.5 -5.5l80 16l38 5l44 3zM150 0v1479l67 -101l47 -102h10q44 0 81.5 -36.5t37.5 -92.5l-31 12q-12 6 -26 6q-8 0 -15 -3t-18 -13q-12 -18 -12 -39v-971h170v-139h-311z" />
    <glyph glyph-name="a" unicode="&#xf245;" horiz-adv-x="399" 
d="M453 1612q-42 -60 -97 -60h-172q-67 0 -99.5 -18t-51.5 -43l-2 25q0 28 20 71q23 45 90 45h172l57 3q25 3 52 13l37 12q24 8 28 11zM150 0v1479l67 -101l47 -102h10q44 0 81.5 -36.5t37.5 -92.5l-31 12q-12 6 -26 6q-8 0 -15 -3t-18 -13q-12 -18 -12 -39v-971h170v-139
h-311z" />
    <glyph glyph-name="b" unicode="&#xf246;" horiz-adv-x="426" 
d="M386 1552h-172q-67 0 -99.5 -18t-51.5 -43q0 57 33 99t75 42h172q68 0 101 21l30 19q10 6 21 22q0 -57 -24.5 -99.5t-84.5 -42.5zM364 1165q-8 0 -15 -3t-18 -13q-12 -18 -12 -39v-1151q0 -214 -54 -319t-106.5 -158t-101.5 -53l34 57l15 23l12 22l9 24l12 31
q12 33 24 117q3 23 6.5 52.5t3.5 54.5l4 149v1520l68 -105l47 -98h10q44 0 81.5 -36.5t37.5 -92.5q-30 18 -57 18z" />
    <glyph glyph-name="c" unicode="&#xf247;" horiz-adv-x="358" 
d="M334 1165q-8 0 -15 -3t-18 -13q-12 -18 -12 -39v-1151q0 -214 -54 -319t-106.5 -158t-101.5 -53l34 57l15 23l12 22l9 24l12 31q12 33 24 117q3 23 6.5 52.5t3.5 54.5l4 149v1520l68 -105l47 -98h10q44 0 81.5 -36.5t37.5 -92.5q-30 18 -57 18zM393 -752q-37 -6 -110 -36
q-34 -16 -64.5 -24.5t-56.5 -8.5h-45l53 82h22l9 4q-29 17 -51 67l-16 47q-4 24 -4.5 35.5t-0.5 18.5q21 0 42.5 6t44.5 20q44 25 67 31q46 0 84 -41l30 -41l-20 -20l-23 12l-33 9l-34 5l-15 -3l-20 -13q-17 -15 -23 -31q0 -10 27 -31q23 -14 66 -22l77 16l41 5l43 3z" />
    <glyph glyph-name="d" unicode="&#xf248;" horiz-adv-x="399" 
d="M150 0v1479l67 -101l47 -102h10q44 0 81.5 -36.5t37.5 -92.5l-31 12q-12 6 -26 6q-8 0 -15 -3t-18 -13q-12 -18 -12 -39v-971h170v-139h-311zM414 -322q-39 -6 -111 -36q-34 -16 -64.5 -24.5t-56.5 -8.5h-45l53 82l17 1q8 0 14 3q-28 15 -51 65q-9 24 -15 50
q-4 26 -4.5 36.5t-0.5 16.5q23 0 43 6t45 22q39 24 65 27q45 0 84 -39l33 -41l-23 -20l-22 12q-32 12 -68 12q-11 0 -35 -14q-8 -6 -14 -14l-8 -17q0 -10 29 -31.5t63 -21.5l80 16l41 7l41 2z" />
    <glyph glyph-name="e" unicode="&#xf249;" horiz-adv-x="408" 
d="M-20 0v139h288v291q0 23 -16 39q-10 12 -29 16q-18 0 -30 -6q-7 -1 -29 -12q0 49 35.5 89t83.5 40h10l65 100l50 74v-770h-428zM276 -285q-34 -26 -67 -26q-21 0 -35 6t-33 22q-28 26 -28 66q0 39 28 68q30 28 68 28q18 0 33 -6t32 -23q31 -28 31 -67q0 -36 -29 -68z" />
    <glyph glyph-name="f" unicode="&#xf24a;" horiz-adv-x="485" 
d="M-43 0v139h281v291q0 22 -17 39q-9 12 -28 16q-18 0 -35 -6l-25 -12q0 47 37 90q16 16 39 29q23 10 45 10h8l115 174v-631h149v-139h-569zM297 -293q-10 -10 -30 -20q-15 -6 -38 -9q-35 0 -65.5 25.5t-30.5 69.5q0 41 29 68.5t67 27.5q19 0 35 -6t33 -23q29 -29 29 -67
q0 -37 -29 -66z" />
    <glyph glyph-name="g" unicode="&#xf24b;" horiz-adv-x="1499" 
d="M37 0l168 74q-72 35 -119 96q-35 54 -86 162v22q126 0 211 43q41 21 68.5 47t50.5 62l17 34q8 16 18 39q17 37 34 91q6 -10 11 -30l4 -40v-14v-12q-2 -8 -2 -12q0 -13 -9 -40q-2 -7 -7 -22.5t-10 -26.5q-9 -25 -34 -74q-35 -77 -166 -120q30 -54 97 -84l67 -22l86 -19
l94 -11l103 -4h633v291q0 23 -17 39q-9 12 -28 16q-25 0 -37 -8l-23 -10q0 49 35 90q16 16 39 29q23 10 45 10h10l51 84l64 90v-631h154v-139h-1522zM879 -272q-29 -29 -68 -29q-33 0 -64.5 28t-31.5 68q0 37 26 66q16 14 32.5 21t37.5 7q19 0 34.5 -6t33.5 -22
q14 -15 21 -31.5t7 -34.5q0 -39 -28 -67z" />
    <glyph glyph-name="h" unicode="&#xf24c;" horiz-adv-x="1405" 
d="M37 0l168 74q-72 35 -119 96q-35 54 -86 162v22q126 0 211 43q41 21 68.5 47t50.5 62l17 34q8 16 18 39q17 37 34 91l11 -42l4 -40q0 -14 -0.5 -30t-7.5 -40q-3 -16 -17 -44q-7 -16 -14.5 -31.5t-20.5 -39.5q-39 -83 -168 -124q30 -54 97 -84l67 -22l86 -19l94 -11
l103 -4h633v291q0 23 -17 39q-9 12 -28 16q-22 0 -31 -5l-13 -7l-16 -6q0 49 35 90q16 16 39 29q23 10 45 10h10l47 84l68 90v-770h-1368zM901 -262q-27 -29 -67 -29q-39 0 -68 26.5t-29 67.5t27 70q12 10 31 20q21 7 39 7q38 0 67 -29q29 -27 29 -68q0 -19 -5 -31
t-9.5 -18.5t-14.5 -15.5z" />
    <glyph glyph-name="i" unicode="&#xf24d;" horiz-adv-x="408" 
d="M403 961q-24 -27 -67 -27q-36 0 -68 27q-28 28 -28 67q0 34 28 66q29 30 68 30q33 0 64.5 -28t31.5 -68q0 -19 -5 -32t-9.5 -19.5t-14.5 -15.5zM193 961q-27 -27 -68 -27q-36 0 -68 27q-28 28 -28 67q0 34 28 66q29 30 68 30q33 0 64.5 -28t31.5 -68q0 -39 -28 -67z
M-20 0v139h288v291q0 23 -16 39q-10 12 -29 16q-18 0 -30 -6q-7 -1 -29 -12q0 49 35.5 89t83.5 40h10l65 100l50 74v-770h-428z" />
    <glyph glyph-name="j" unicode="&#xf24e;" horiz-adv-x="485" 
d="M401 928q-27 -29 -67 -29q-33 0 -64.5 28t-31.5 68q0 37 26 66q24 23 70 29q36 0 65 -29t29 -66q0 -40 -27 -67zM190 928q-27 -29 -67 -29q-33 0 -64.5 28t-31.5 68q0 37 26 66q24 23 70 29q36 0 65 -29t29 -66q0 -40 -27 -67zM-43 0v139h281v291q0 22 -17 39
q-9 12 -28 16q-18 0 -35 -6l-25 -12q0 47 37 90q16 16 39 29q23 10 45 10h8l115 174v-631h149v-139h-569z" />
    <glyph glyph-name="k" unicode="&#xf24f;" horiz-adv-x="1499" 
d="M1026 594q-24 -29 -68 -29q-18 0 -35 6q-15 7 -30 23q-31 25 -31 65q0 39 29 68t67 29q39 0 68 -29t29 -68q0 -18 -6 -35q-7 -15 -23 -30zM815 594q-24 -29 -67 -29q-38 0 -66 29q-31 25 -31 65q0 39 29 68t68 29q18 0 34 -6t33 -23q29 -27 29 -68q0 -18 -6 -35
q-7 -15 -23 -30zM37 0l168 74q-72 35 -119 96q-35 54 -86 162v22q126 0 211 43q41 21 68.5 47t50.5 62l17 34q8 16 18 39q17 37 34 91q6 -10 11 -30l4 -40v-14v-12q-2 -8 -2 -12q0 -13 -9 -40q-2 -7 -7 -22.5t-10 -26.5q-9 -25 -34 -74q-35 -77 -166 -120q30 -54 97 -84
l67 -22l86 -19l94 -11l103 -4h633v291q0 23 -17 39q-9 12 -28 16q-25 0 -37 -8l-23 -10q0 49 35 90q16 16 39 29q23 10 45 10h10l51 84l64 90v-631h154v-139h-1522z" />
    <glyph glyph-name="l" unicode="&#xf250;" horiz-adv-x="1405" 
d="M1026 594q-24 -29 -68 -29q-18 0 -35 6q-15 7 -30 23q-31 25 -31 65q0 39 29 68t67 29q39 0 68 -29t29 -68q0 -18 -6 -35q-7 -15 -23 -30zM815 594q-24 -29 -67 -29q-38 0 -66 29q-31 25 -31 65q0 39 29 68t68 29q18 0 34 -6t33 -23q29 -27 29 -68q0 -18 -6 -35
q-7 -15 -23 -30zM37 0l168 74q-72 35 -119 96q-35 54 -86 162v22q126 0 211 43q41 21 68.5 47t50.5 62l17 34q8 16 18 39q17 37 34 91l11 -42l4 -40q0 -14 -0.5 -30t-7.5 -40q-3 -16 -17 -44q-7 -16 -14.5 -31.5t-20.5 -39.5q-39 -83 -168 -124q30 -54 97 -84l67 -22l86 -19
l94 -11l103 -4h633v291q0 23 -17 39q-9 12 -28 16q-22 0 -31 -5l-13 -7l-16 -6q0 49 35 90q16 16 39 29q23 10 45 10h10l47 84l68 90v-770h-1368z" />
    <glyph glyph-name="m" unicode="&#xf251;" horiz-adv-x="408" 
d="M319 1077q-9 -7 -19 -12.5t-14 -7.5q-17 -6 -36 -6q-38 0 -68 26q-28 31 -28 68q0 39 28.5 67.5t67.5 28.5q18 0 34 -6t33 -23q29 -27 29 -67q0 -36 -27 -68zM422 903q-20 -23 -68 -29q-33 0 -64.5 28.5t-31.5 68.5q0 17 6 32.5t21 32.5q27 29 69 29q21 0 35.5 -6.5
t32.5 -22.5q29 -29 29 -65q0 -39 -29 -68zM211 903q-10 -10 -30 -20q-15 -6 -38 -9q-33 0 -64.5 28.5t-31.5 68.5q0 17 6 32.5t21 32.5q27 29 69 29q21 0 35.5 -6.5t32.5 -22.5q29 -29 29 -65q0 -39 -29 -68zM-20 0v139h288v291q0 23 -16 39q-10 12 -29 16q-18 0 -30 -6
q-7 -1 -29 -12q0 49 35.5 89t83.5 40h10l65 100l50 74v-770h-428z" />
    <glyph glyph-name="n" unicode="&#xf252;" horiz-adv-x="485" 
d="M297 1040q-34 -26 -68 -26q-38 0 -67 26q-29 29 -29 68q0 19 6 35t23 33q28 28 67 28q33 0 65 -29q32 -27 32 -67q0 -35 -29 -68zM401 866q-28 -28 -67 -28q-34 0 -66 28q-30 29 -30 68q0 36 26 65q29 29 70 29q19 0 31 -5t18.5 -9.5t15.5 -14.5q29 -27 29 -65
q0 -39 -27 -68zM190 866q-28 -28 -67 -28q-34 0 -66 28q-30 29 -30 68q0 36 26 65q29 29 70 29q19 0 31 -5t18.5 -9.5t15.5 -14.5q29 -27 29 -65q0 -39 -27 -68zM-43 0v139h281v291q0 22 -17 39q-9 12 -28 16q-18 0 -35 -6l-25 -12q0 47 37 90q16 16 39 29q23 10 45 10h8
l115 174v-631h149v-139h-569z" />
    <glyph glyph-name="o" unicode="&#xf253;" horiz-adv-x="1499" 
d="M913 817q-10 -10 -30 -20q-15 -6 -37 -9q-34 0 -65 29t-31 68q0 36 26 65q29 29 70 29q18 0 34 -6t33 -23q29 -27 29 -65q0 -21 -6.5 -35.5t-22.5 -32.5zM1026 594q-24 -29 -68 -29q-18 0 -35 6q-15 7 -30 23q-31 25 -31 65q0 39 29 68t67 29q39 0 68 -29t29 -68
q0 -18 -6 -35q-7 -15 -23 -30zM815 594q-24 -29 -67 -29q-38 0 -66 29q-31 25 -31 65q0 39 29 68t68 29q18 0 34 -6t33 -23q29 -27 29 -68q0 -18 -6 -35q-7 -15 -23 -30zM37 0l168 74q-72 35 -119 96q-35 54 -86 162v22q126 0 211 43q41 21 68.5 47t50.5 62l17 34
q8 16 18 39q17 37 34 91q6 -10 11 -30l4 -40v-14v-12q-2 -8 -2 -12q0 -13 -9 -40q-2 -7 -7 -22.5t-10 -26.5q-9 -25 -34 -74q-35 -77 -166 -120q30 -54 97 -84l67 -22l86 -19l94 -11l103 -4h633v291q0 23 -17 39q-9 12 -28 16q-25 0 -37 -8l-23 -10q0 49 35 90q16 16 39 29
q23 10 45 10h10l51 84l64 90v-631h154v-139h-1522z" />
    <glyph glyph-name="p" unicode="&#xf254;" horiz-adv-x="1405" 
d="M924 768q-15 -13 -32 -22q-19 -7 -38 -7q-29 0 -61.5 27t-32.5 70q0 39 28.5 67.5t65.5 28.5q36 0 68 -31q28 -28 28 -65q0 -42 -26 -68zM1026 594q-24 -29 -68 -29q-18 0 -35 6q-15 7 -30 23q-31 25 -31 65q0 39 29 68t67 29q39 0 68 -29t29 -68q0 -18 -6 -35
q-7 -15 -23 -30zM815 594q-24 -29 -67 -29q-38 0 -66 29q-31 25 -31 65q0 39 29 68t68 29q18 0 34 -6t33 -23q29 -27 29 -68q0 -18 -6 -35q-7 -15 -23 -30zM37 0l168 74q-72 35 -119 96q-35 54 -86 162v22q126 0 211 43q41 21 68.5 47t50.5 62l17 34q8 16 18 39q17 37 34 91
q6 -10 11 -30l4 -40v-15q0 -9 -1.5 -24.5t-9.5 -38.5q-6 -34 -49 -121q-38 -81 -168 -122q30 -54 97 -84l67 -22l86 -19l94 -11l103 -4h633v291q0 23 -17 39q-9 12 -28 16q-18 0 -33 -6l-27 -12q0 49 35 90q16 16 39 29q23 10 45 10h10l47 84l68 90v-770h-1368z" />
    <glyph glyph-name="q" unicode="&#xf255;" horiz-adv-x="1180" 
d="M1137 104q-14 -9 -37 -23l-27 -15q-29 -16 -80 -35q-84 -31 -186 -31h-827v139h382q-65 38 -116 94l-46 52l-33 46l-33 64l-40 92q-9 23 -17.5 53.5t-14 65t-8.5 77t-3 89.5v348l68 -88l53 -98h8q47 0 83 -36t36 -91l-23 8l-36 8q-24 0 -43 -16q-18 -11 -21 -43v-19
q0 -289 219 -448q108 -77 238 -117.5t272 -40.5h279zM543 -272q-29 -29 -68 -29q-19 0 -33 6.5t-32 22.5q-31 28 -31 67q0 36 27 66q28 28 69 28q19 0 34.5 -6t33.5 -22q14 -15 21 -31.5t7 -34.5q0 -39 -28 -67z" />
    <glyph glyph-name="r" unicode="&#xf256;" horiz-adv-x="901" 
d="M-45 0v139h407q-65 38 -116 94l-46 52l-33 46l-33 64l-40 92q-9 23 -17.5 53.5t-14 65t-8.5 77t-3 89.5v348v43l121 -229h8q47 0 83 -36t36 -91l-2 -27q-3 20 -23 31q-18 12 -34 12q-24 0 -43 -16q-18 -11 -21 -43v-19q0 -288 207 -447t491 -159h68v-139h-987zM406 -262
q-29 -29 -70 -29q-37 0 -66 29q-30 24 -30 65q0 38 26 68q15 13 32 22q19 7 38 7q39 0 67.5 -30.5t28.5 -66.5t-26 -65z" />
    <glyph glyph-name="s" unicode="&#xf257;" horiz-adv-x="801" 
d="M610 0q-146 0 -250 -30t-149 -58l-47 -35l-14 -16q0 -155 153 -301q74 -68 158 -128.5t180 -113.5q177 -94 209 -104l-15 -4l-24 -5l-37 -2h-15q-9 0 -25 2q-13 0 -38 9q-36 6 -179 66t-330 224.5t-187 384.5q0 22 53 72q55 47 149 98q44 24 90.5 42.5t98.5 31.5
q-60 38 -135 111q-30 33 -62 79q-27 42 -49 89q-37 89 -55 179t-18 181v358l75 -98l46 -88h8q44 0 81 -31.5t37 -97.5l-24 10l-37 9q-23 0 -42 -16t-19 -46v-27q0 -204 109.5 -337.5t260.5 -202.5q69 -30 133 -50q61 -16 101 -16h61v-139h-252zM524 -324q-26 -26 -67 -26
q-21 0 -34 5.5t-18 9t-15 12.5q-13 12 -23 30q-7 18 -7 37q0 37 27 70q13 11 32 20q17 6 38 6q19 0 34 -6t31 -22q31 -28 31 -68q0 -36 -29 -68z" />
    <glyph glyph-name="t" unicode="&#xf258;" horiz-adv-x="1204" 
d="M1157 104q-14 -10 -36 -23l-27 -15q-30 -16 -80 -35q-42 -15 -88 -23t-99 -8h-217q-146 0 -250 -30t-149 -58l-47 -35l-14 -16q0 -155 153 -301q74 -68 158 -128.5t180 -113.5q177 -94 209 -104q-20 -3 -40 -5t-38 -2q-73 0 -234 66t-349.5 231t-188.5 385q0 21 55 76
q58 52 116 86.5t111 55t101 32.5q-69 41 -115.5 91t-81.5 104q-23 41 -68.5 148.5t-45.5 289.5v348l71 -88l50 -98h8q46 0 82 -36.5t36 -90.5l-22 10q-9 6 -37 6q-12 0 -21 -3t-23 -13t-19 -43v-19q0 -143 53.5 -254.5t165.5 -193.5q220 -158 510 -158h278zM524 -324
q-26 -26 -67 -26q-21 0 -34 5.5t-18 9t-15 12.5q-13 12 -23 30q-7 18 -7 37q0 37 27 70q13 11 32 20q17 6 38 6q19 0 34 -6t31 -22q31 -28 31 -68q0 -36 -29 -68z" />
    <glyph glyph-name="u" unicode="&#xf259;" horiz-adv-x="1180" 
d="M1137 104q-14 -9 -37 -23l-27 -15q-29 -16 -80 -35q-84 -31 -186 -31h-827v139h382q-65 38 -116 94l-46 52l-33 46l-33 64l-40 92q-9 23 -17.5 53.5t-14 65t-8.5 77t-3 89.5v348l68 -88l53 -98h8q47 0 83 -36t36 -91l-23 8l-36 8q-24 0 -43 -16q-18 -11 -21 -43v-19
q0 -289 219 -448q108 -77 238 -117.5t272 -40.5h279z" />
    <glyph glyph-name="v" unicode="&#xf25a;" horiz-adv-x="901" 
d="M-20 0v139h382q-65 38 -116 94l-46 52l-33 46l-33 64l-40 92q-9 23 -17.5 53.5t-14 65t-8.5 77t-3 89.5v348l55 -78l66 -108h8q47 0 83 -36t36 -91q-17 9 -31 12l-28 4q-24 0 -43 -16q-18 -11 -21 -43v-19q0 -288 207 -447t491 -159h80v-139h-974z" />
    <glyph glyph-name="w" unicode="&#xf25b;" horiz-adv-x="456" 
d="M322 -223h-309v1227h309v-77h-182v-1074h182v-76z" />
    <glyph glyph-name="x" unicode="&#xf25c;" horiz-adv-x="801" 
d="M610 0q-146 0 -250 -30t-149 -58l-47 -35l-14 -16q0 -155 153 -301q74 -68 158 -128.5t180 -113.5q177 -94 209 -104l-15 -4l-24 -5l-37 -2h-15q-9 0 -25 2q-13 0 -38 9q-36 6 -179 66t-330 224.5t-187 384.5q0 22 53 72q55 47 149 98q44 24 90.5 42.5t98.5 31.5
q-60 38 -135 111q-30 33 -62 79q-27 42 -49 89q-37 89 -55 179t-18 181v358l75 -98l46 -88h8q44 0 81 -31.5t37 -97.5l-24 10l-37 9q-23 0 -42 -16t-19 -46v-27q0 -204 109.5 -337.5t260.5 -202.5q69 -30 133 -50q61 -16 101 -16h61v-139h-252z" />
    <glyph glyph-name="y" unicode="&#xf25d;" horiz-adv-x="456" 
d="M451 -223h-308v76h182v1074h-182v77h308v-1227z" />
    <glyph glyph-name="z" unicode="&#xf25e;" horiz-adv-x="569" 
d="M379 90q0 -87 -41 -162t-143 -163l-31 33l56 55q23 25 37 46q39 59 39 120l-1 22q-59 0 -92 27q-31 28 -31 74q0 35 27.5 63.5t68.5 28.5q48 0 79 -40q15 -18 24 -45l6 -26z" />
    <glyph glyph-name="braceleft" unicode="&#xf25f;" horiz-adv-x="228" 
d="M266 0h-294v140h294v-140z" />
    <glyph glyph-name="bar" unicode="&#xf260;" horiz-adv-x="1204" 
d="M1157 104q-14 -10 -36 -23l-27 -15q-30 -16 -80 -35q-42 -15 -88 -23t-99 -8h-217q-146 0 -250 -30t-149 -58l-47 -35l-14 -16q0 -155 153 -301q74 -68 158 -128.5t180 -113.5q177 -94 209 -104q-20 -3 -40 -5t-38 -2q-73 0 -234 66t-349.5 231t-188.5 385q0 21 55 76
q58 52 116 86.5t111 55t101 32.5q-69 41 -115.5 91t-81.5 104q-23 41 -68.5 148.5t-45.5 289.5v348l71 -88l50 -98h8q46 0 82 -36.5t36 -90.5l-22 10q-9 6 -37 6q-12 0 -21 -3t-23 -13t-19 -43v-19q0 -143 53.5 -254.5t165.5 -193.5q220 -158 510 -158h278z" />
    <glyph glyph-name="braceright" unicode="&#xf261;" horiz-adv-x="1180" 
d="M625 539q-29 -29 -68 -29q-38 0 -67 26t-29 68q0 40 29.5 68t66.5 28q35 0 68 -30q14 -15 21 -31.5t7 -34.5t-6 -33.5t-22 -31.5zM1137 104q-14 -9 -37 -23l-27 -15q-29 -16 -80 -35q-84 -31 -186 -31h-827v139h382q-65 38 -116 94l-46 52l-33 46l-33 64l-40 92
q-9 23 -17.5 53.5t-14 65t-8.5 77t-3 89.5v348l68 -88l53 -98h8q47 0 83 -36t36 -91l-23 8l-36 8q-24 0 -43 -16q-18 -11 -21 -43v-19q0 -289 219 -448q108 -77 238 -117.5t272 -40.5h279z" />
    <glyph glyph-name="asciitilde" unicode="&#xf262;" horiz-adv-x="901" 
d="M684 524q-28 -28 -68 -28q-33 0 -64.5 28t-31.5 68q0 17 6 32.5t21 32.5q27 29 69 29q39 0 68 -29q14 -13 21.5 -29t7.5 -36q0 -21 -6.5 -35.5t-22.5 -32.5zM-45 0v139h407q-65 38 -116 94l-46 52l-33 46l-33 64l-40 92q-9 23 -17.5 53.5t-14 65t-8.5 77t-3 89.5v348v43
l121 -229h8q47 0 83 -36t36 -91l-2 -27q-3 20 -23 31q-18 12 -34 12q-24 0 -43 -16q-18 -11 -21 -43v-19q0 -288 207 -447t491 -159h68v-139h-987z" />
    <glyph glyph-name="DEL" unicode="&#xf263;" horiz-adv-x="801" 
d="M633 571q-31 -28 -68 -28q-38 0 -67 26t-29 68q0 39 27.5 67.5t68.5 28.5q38 0 68 -26q11 -13 20 -32q6 -15 9 -38q0 -37 -29 -66zM610 0q-146 0 -250 -30t-149 -58l-47 -35l-14 -16q0 -155 153 -301q74 -68 158 -128.5t180 -113.5q177 -94 209 -104l-15 -4l-24 -5
l-37 -2h-15q-9 0 -25 2q-13 0 -38 9q-36 6 -179 66t-330 224.5t-187 384.5q0 22 53 72q55 47 149 98q44 24 90.5 42.5t98.5 31.5q-60 38 -135 111q-30 33 -62 79q-27 42 -49 89q-37 89 -55 179t-18 181v358l75 -98l46 -88h8q44 0 81 -31.5t37 -97.5l-24 10l-37 9
q-23 0 -42 -16t-19 -46v-27q0 -204 109.5 -337.5t260.5 -202.5q69 -30 133 -50q61 -16 101 -16h61v-139h-252z" />
    <glyph glyph-name="c129" unicode="&#xf265;" horiz-adv-x="1219" 
d="M594 0q-208 0 -311 63t-129 134l-17 58q-6 24 -6 44t5 40.5t12 37.5q4 10 12 26q39 -120 137 -192t297 -72h483v33q0 114 -51.5 176t-200.5 62h-47q-130 0 -234 57t-169 132.5t-70 105.5v202l90 -127q34 -45 80 -89q18 -18 43 -38t49 -37q100 -65 232 -65h78
q163 0 252.5 -94t89.5 -285v-172h-625z" />
    <glyph glyph-name="quotesinglbase" unicode="&#xf266;" horiz-adv-x="1313" 
d="M596 0q-208 0 -309.5 61.5t-128.5 133.5l-15 55l-8 45q0 12 1 24.5t5.5 33t20.5 50.5q42 -125 137 -196q92 -68 297 -68h483v33q0 110 -55 174q-24 29 -74.5 46.5t-122.5 17.5h-47q-127 0 -219 49l-73 43q-16 10 -26.5 17t-23.5 16l-32 32l-39 41q-35 43 -50 97l-7 53
l-3 67v82l90 -127q67 -91 170 -162q50 -33 108 -50t124 -17h78q164 0 253 -92q44 -45 66 -117q11 -35 17 -77.5t6 -92.5v-33h131v-139h-754z" />
    <glyph glyph-name="florin" unicode="&#xf267;" horiz-adv-x="1219" 
d="M403 1036q-34 -26 -67 -26q-38 0 -68 26q-28 31 -28 68q0 33 28 64.5t68 31.5q19 0 33 -6.5t32 -22.5q31 -28 31 -67q0 -21 -6.5 -35.5t-22.5 -32.5zM594 0q-208 0 -311 63t-129 134l-17 58q-6 24 -6 44t5 40.5t12 37.5q4 10 12 26q39 -120 137 -192t297 -72h483v33
q0 114 -51.5 176t-200.5 62h-47q-130 0 -234 57t-169 132.5t-70 105.5v202l90 -127q34 -45 80 -89q18 -18 43 -38t49 -37q100 -65 232 -65h78q163 0 252.5 -94t89.5 -285v-172h-625z" />
    <glyph glyph-name="quotedblbase" unicode="&#xf268;" horiz-adv-x="1313" 
d="M385 1036q-34 -26 -68 -26q-38 0 -67 26q-29 29 -29 68q0 18 6 34t23 33q27 29 67 29q33 0 65 -29q32 -27 32 -67q0 -36 -29 -68zM596 0q-208 0 -309.5 61.5t-128.5 133.5l-15 55l-8 45q0 12 1 24.5t5.5 33t20.5 50.5q42 -125 137 -196q92 -68 297 -68h483v33
q0 110 -55 174q-24 29 -74.5 46.5t-122.5 17.5h-47q-127 0 -219 49l-73 43q-16 10 -26.5 17t-23.5 16l-32 32l-39 41q-35 43 -50 97l-7 53l-3 67v82l90 -127q67 -91 170 -162q50 -33 108 -50t124 -17h78q164 0 253 -92q44 -45 66 -117q11 -35 17 -77.5t6 -92.5v-33h131v-139
h-754z" />
    <glyph glyph-name="ellipsis" unicode="&#xf269;" horiz-adv-x="391" 
d="M285 -338q-39 -61 -94.5 -104t-131.5 -74l-34 -6l-52 -15q-54 -12 -88 -12q-20 0 -47 6q41 13 82 41l82 51q41 26 86 70q22 22 49 58q13 17 25.5 35t30.5 47q29 44 44 115t15 171v389q0 24 -12 36t-33 15q-28 0 -31 -2l-10 -5l-19 -11q0 57 37.5 93t83.5 36l58 84l65 90
v-661q0 -281 -106 -447z" />
    <glyph glyph-name="dagger" unicode="&#xf26a;" horiz-adv-x="641" 
d="M551 0q0 -230 -76 -328q-71 -92 -131 -133q-55 -37 -131 -61q-23 -7 -45 -12t-39.5 -8t-39 -5t-46.5 -2q-29 0 -43 6l154 84q13 9 25.5 16.5t25.5 18.5q21 15 47 43q16 16 46 57l56 84q60 95 60 285v389q0 21 -11.5 33.5t-33.5 17.5q-21 0 -35 -6l-23 -12q0 60 37.5 94.5
t81.5 34.5h8l49 88l68 86v-631h152v-139h-156z" />
    <glyph glyph-name="daggerdbl" unicode="&#xf26b;" horiz-adv-x="391" 
d="M367 842q-27 -27 -68 -27q-36 0 -68 27q-28 28 -28 67q0 33 28.5 65t67.5 32q34 0 65 -29t31 -68t-28 -67zM285 -338q-39 -61 -94.5 -104t-131.5 -74l-34 -6l-52 -15q-54 -12 -88 -12q-20 0 -47 6q41 13 82 41l82 51q41 26 86 70q22 22 49 58q13 17 25.5 35t30.5 47
q29 44 44 115t15 171v389q0 24 -12 36t-33 15q-28 0 -31 -2l-10 -5l-19 -11q0 57 37.5 93t83.5 36l58 84l65 90v-661q0 -281 -106 -447z" />
    <glyph glyph-name="circumflex" unicode="&#xf26c;" horiz-adv-x="641" 
d="M397 799q-24 -29 -67 -29q-36 0 -68 27q-11 9 -20 28q-6 17 -9 39q0 38 29 68q24 23 68 29q38 0 67 -29t29 -68q0 -18 -6 -35q-7 -15 -23 -30zM551 0q0 -230 -76 -328q-71 -92 -131 -133q-55 -37 -131 -61q-23 -7 -45 -12t-39.5 -8t-39 -5t-46.5 -2q-29 0 -43 6l154 84
q13 9 25.5 16.5t25.5 18.5q21 15 47 43q16 16 46 57l56 84q60 95 60 285v389q0 21 -11.5 33.5t-33.5 17.5q-21 0 -35 -6l-23 -12q0 60 37.5 94.5t81.5 34.5h8l49 88l68 86v-631h152v-139h-156z" />
    <glyph glyph-name="perthousand" unicode="&#xf26d;" horiz-adv-x="1053" 
d="M989 -76q-77 -104 -241 -104h-138v180h-667v139h290v295q0 26 -14 37q-9 10 -29 14h-24l-35 -18q0 55 35.5 91t83.5 36h8l72 108l43 68v-631h237v295q0 26 -14 37q-9 10 -29 14q-17 0 -35 -6l-24 -12q0 8 0.5 18.5t8 29.5t26.5 40q36 39 84 39h8l59 104l56 72v-811h8
q86 0 121 57q32 59 32 164v254q0 26 -14 37q-9 10 -29 14q-17 0 -34 -6l-25 -12q0 8 0.5 18.5t8 29.5t26.5 40q36 39 84 39h8l61 100l54 76v-590q0 -160 -62 -256z" />
    <glyph glyph-name="Scaron" unicode="&#xf26e;" horiz-adv-x="1163" 
d="M1006 0q-24 -80 -93.5 -130t-185.5 -50h-137v180h-631v139h254v295q0 26 -12.5 36t-30.5 15q-18 0 -35 -6l-24 -12q0 55 35.5 91t82.5 36h9l61 100l53 76v-631h238v295q0 25 -15 37q-9 9 -28 14q-18 0 -35 -6l-25 -12q0 49 35 88q16 16 39 29q23 10 45 10h8l62 100l53 76
v-811h8q88 0 121 57q15 27 24 69t9 95v254q0 26 -12.5 36t-30.5 15q-23 0 -37 -6l-23 -12q0 49 35 88q16 16 39 29q23 10 45 10h8l72 108l43 68v-631h160v-139h-184z" />
    <glyph glyph-name="guilsinglleft" unicode="&#xf26f;" horiz-adv-x="1907" 
d="M1774 0q-30 -81 -97 -130.5t-182 -49.5h-137v180h-248q0 -186 -157.5 -319.5t-411.5 -133.5q-241 0 -391 139t-150 371q0 19 1 39t4 42.5t6.5 41.5t10.5 45l27 98l33 103l45 125l20 -68l7 -61q16 14 32 26.5t36 25.5q33 22 63.5 33.5t57.5 18.5l50 9h16q11 0 21 -5
q19 0 53 -20q-63 0 -153 -48t-164 -147.5t-74 -228.5q0 -186 126.5 -291.5t322.5 -105.5q192 0 316 109t124 272v364q0 26 -12.5 36t-30.5 15h-23q-6 -2 -12 -5l-26 -13q0 28 8 49.5t26 40.5q37 37 84 37h9l47 86l69 90v-631h238v295q0 25 -15 37q-9 9 -28 14h-23l-39 -18
q0 52 36 89.5t83 37.5h8l47 86l70 90v-811q49 0 81 14t47.5 44.5t24.5 71.5t9 91v254q0 26 -12.5 36t-30.5 15q-35 0 -62 -18q0 52 36 89.5t83 37.5h8l45 80l72 96v-590l-2 -41h168v-139h-190z" />
    <glyph glyph-name="OE" unicode="&#xf270;" horiz-adv-x="1800" 
d="M1735 -76q-74 -104 -240 -104h-137v180h-248q0 -186 -157.5 -319.5t-411.5 -133.5q-241 0 -391 139t-150 371q0 19 1 39t4 42.5t6.5 41.5t10.5 45l27 98l33 103l45 125l29 -68l-2 -61q16 14 32 26.5t36 25.5q33 22 65 34q57 21 108 27l22 -1q12 0 21 -4q21 -3 45 -20
q-63 0 -153 -48t-164 -147.5t-74 -228.5q0 -186 126.5 -291.5t322.5 -105.5q192 0 316 109t124 272v364q0 26 -12.5 36t-30.5 15q-23 0 -37 -6l-24 -12q0 28 8 49.5t26 40.5q37 37 84 37h9l49 90l67 86v-631h238v295q0 25 -15 37q-9 9 -28 14q-24 0 -33 -5l-13 -7l-16 -6
q0 52 36 89.5t83 37.5h8l47 86l70 90v-811q49 0 81 14t47.5 44.5t24.5 71.5t9 91v254q0 26 -12.5 36t-30.5 15q-23 0 -37 -6l-25 -12q0 52 36 89.5t83 37.5h8l50 86l67 90v-590q0 -164 -63 -256z" />
    <glyph glyph-name="c141" unicode="&#xf271;" horiz-adv-x="1053" 
d="M737 1087q-28 -28 -67 -28q-34 0 -65.5 28.5t-31.5 67.5q0 35 27 68q34 28 70 28q33 0 65 -30q29 -32 29 -66q0 -39 -27 -68zM881 901q-24 -21 -68 -27q-35 0 -68 27q-28 31 -28 68q0 33 28 64.5t68 31.5q33 0 64.5 -28t31.5 -68t-28 -68zM608 901q-21 -21 -67 -27
q-35 0 -68 27q-13 14 -21 31q-4 9 -6 17.5t-2 19.5q0 35 27 67q32 29 70 29q19 0 31 -5t18.5 -9.5t15.5 -14.5q29 -27 29 -67q0 -39 -27 -68zM989 -76q-77 -104 -241 -104h-138v180h-667v139h290v295q0 26 -14 37q-9 10 -29 14h-24l-35 -18q0 55 35.5 91t83.5 36h8l72 108
l43 68v-631h237v295q0 26 -14 37q-9 10 -29 14q-17 0 -35 -6l-24 -12q0 8 0.5 18.5t8 29.5t26.5 40q36 39 84 39h8l59 104l56 72v-811h8q86 0 121 57q32 59 32 164v254q0 26 -14 37q-9 10 -29 14q-17 0 -34 -6l-25 -12q0 8 0.5 18.5t8 29.5t26.5 40q36 39 84 39h8l61 100
l54 76v-590q0 -160 -62 -256z" />
    <glyph glyph-name="c142" unicode="&#xf272;" horiz-adv-x="1163" 
d="M659 1071q-14 -11 -32 -18l-35 -9q-35 0 -68 27q-28 31 -28 68q0 39 28.5 67.5t67.5 28.5q19 0 33 -6.5t32 -22.5q31 -28 31 -67q0 -21 -6.5 -35.5t-22.5 -32.5zM764 897q-15 -13 -32.5 -21t-35.5 -8q-33 0 -64.5 28t-31.5 69q0 18 6 34t23 33q27 29 67 29q35 0 66 -31
q31 -28 31 -65q0 -38 -29 -68zM553 897q-29 -29 -68 -29q-33 0 -64.5 28t-31.5 69q0 18 6 34t23 33q27 29 67 29q35 0 66 -31q31 -28 31 -65q0 -38 -29 -68zM1006 0q-24 -80 -93.5 -130t-185.5 -50h-137v180h-631v139h254v295q0 26 -12.5 36t-30.5 15q-18 0 -35 -6l-24 -12
q0 55 35.5 91t82.5 36h9l61 100l53 76v-631h238v295q0 25 -15 37q-9 9 -28 14q-18 0 -35 -6l-25 -12q0 49 35 88q16 16 39 29q23 10 45 10h8l62 100l53 76v-811h8q88 0 121 57q15 27 24 69t9 95v254q0 26 -12.5 36t-30.5 15q-23 0 -37 -6l-23 -12q0 49 35 88q16 16 39 29
q23 10 45 10h8l72 108l43 68v-631h160v-139h-184z" />
    <glyph glyph-name="c143" unicode="&#xf273;" horiz-adv-x="1907" 
d="M1427 1071q-14 -11 -32 -18l-35 -9q-35 0 -68 27q-28 31 -28 68q0 20 6 36.5t22 30.5q32 29 68 29q19 0 31 -5t18.5 -9.5t15.5 -14.5q29 -27 29 -67q0 -36 -27 -68zM1532 897q-15 -13 -32 -22q-19 -7 -38 -7q-38 0 -67 29q-29 27 -29 68q0 19 5 31t9.5 18.5t14.5 15.5
q28 31 67 31q36 0 68 -31q23 -23 29 -65q0 -39 -27 -68zM1321 897q-13 -13 -31 -22q-19 -7 -39 -7q-38 0 -67 29q-29 27 -29 68q0 19 5 31t9.5 18.5t14.5 15.5q28 31 67 31q35 0 66 -30t31 -66q0 -39 -27 -68zM1774 0q-30 -81 -97 -130.5t-182 -49.5h-137v180h-248
q0 -186 -157.5 -319.5t-411.5 -133.5q-241 0 -391 139t-150 371q0 19 1 39t4 42.5t6.5 41.5t10.5 45l27 98l33 103l45 125l20 -68l7 -61q16 14 32 26.5t36 25.5q33 22 63.5 33.5t57.5 18.5l50 9h16q11 0 21 -5q19 0 53 -20q-63 0 -153 -48t-164 -147.5t-74 -228.5
q0 -186 126.5 -291.5t322.5 -105.5q192 0 316 109t124 272v364q0 26 -12.5 36t-30.5 15h-23q-6 -2 -12 -5l-26 -13q0 28 8 49.5t26 40.5q37 37 84 37h9l47 86l69 90v-631h238v295q0 25 -15 37q-9 9 -28 14h-23l-39 -18q0 52 36 89.5t83 37.5h8l47 86l70 90v-811q49 0 81 14
t47.5 44.5t24.5 71.5t9 91v254q0 26 -12.5 36t-30.5 15q-35 0 -62 -18q0 52 36 89.5t83 37.5h8l45 80l72 96v-590l-2 -41h168v-139h-190z" />
    <glyph glyph-name="c144" unicode="&#xf274;" horiz-adv-x="1800" 
d="M1427 1071q-14 -11 -32 -18l-35 -9q-35 0 -68 27q-28 31 -28 68q0 20 6 36.5t22 30.5q32 29 68 29q19 0 31 -5t18.5 -9.5t15.5 -14.5q29 -27 29 -67q0 -36 -27 -68zM1532 897q-15 -13 -32 -22q-19 -7 -38 -7q-38 0 -67 29q-29 27 -29 68q0 19 5 31t9.5 18.5t14.5 15.5
q28 31 67 31q36 0 68 -31q23 -23 29 -65q0 -39 -27 -68zM1321 897q-13 -13 -31 -22q-19 -7 -39 -7q-38 0 -67 29q-29 27 -29 68q0 19 5 31t9.5 18.5t14.5 15.5q28 31 67 31q35 0 66 -30t31 -66q0 -39 -27 -68zM1735 -76q-74 -104 -240 -104h-137v180h-248
q0 -186 -157.5 -319.5t-411.5 -133.5q-241 0 -391 139t-150 371q0 19 1 39t4 42.5t6.5 41.5t10.5 45l27 98l33 103l45 125l29 -68l-2 -61q16 14 32 26.5t36 25.5q33 22 65 34q57 21 108 27l22 -1q12 0 21 -4q21 -3 45 -20q-63 0 -153 -48t-164 -147.5t-74 -228.5
q0 -186 126.5 -291.5t322.5 -105.5q192 0 316 109t124 272v364q0 26 -12.5 36t-30.5 15q-23 0 -37 -6l-24 -12q0 28 8 49.5t26 40.5q37 37 84 37h9l49 90l67 86v-631h238v295q0 25 -15 37q-9 9 -28 14q-24 0 -33 -5l-13 -7l-16 -6q0 52 36 89.5t83 37.5h8l47 86l70 90v-811
q49 0 81 14t47.5 44.5t24.5 71.5t9 91v254q0 26 -12.5 36t-30.5 15q-23 0 -37 -6l-25 -12q0 52 36 89.5t83 37.5h8l50 86l67 90v-590q0 -164 -63 -256z" />
    <glyph glyph-name="quoteleft" unicode="&#xf275;" horiz-adv-x="1332" 
d="M1315 139q-40 -90 -104.5 -114.5t-204.5 -24.5h-1036v139h212v295q0 24 -13 37.5t-30 13.5q-12 0 -26 -10q-5 -2 -15.5 -4.5t-17.5 -3.5q0 57 35 92q34 37 82 37h8l25 42l40 58l25 39l27 35v-317q60 48 140.5 73t188.5 25h338q48 0 79.5 4.5t49.5 9.5t41 15q74 30 129 69
l43 35v-451q0 -32 -3.5 -52.5t-12.5 -41.5zM1190 442q-47 -13 -107 -24l-70 -5l-75 -3h-332q-57 0 -103 -14t-93 -46q-83 -54 -88 -84v-127h757q51 0 88 31q23 25 23 63v209z" />
    <glyph glyph-name="quoteright" unicode="&#xf276;" horiz-adv-x="1405" 
d="M-20 0v139h202v295q0 24 -13 37.5t-30 13.5q-12 0 -26 -10q-5 -2 -15.5 -4.5t-17.5 -3.5q0 57 35 92q34 37 82 37h8l25 42l40 58l25 39l27 35v-317q60 48 140.5 73t188.5 25h338q48 0 79.5 4.5t49.5 9.5t41 15q74 30 129 69l43 35v-451v-25q-3 -17 -5 -31t-11 -38h129
v-139h-1464zM1190 442q-47 -13 -107 -24l-70 -5l-75 -3h-332q-57 0 -103 -14t-93 -46q-83 -54 -88 -84v-127h757q51 0 88 31q23 25 23 63v209z" />
    <glyph glyph-name="quotedblleft" unicode="&#xf277;" horiz-adv-x="2216" 
d="M1110 0q0 -186 -157.5 -319.5t-411.5 -133.5q-241 0 -391 139t-150 371q0 19 1 39t4 42.5t6.5 41.5t10.5 45l27 98l33 103l45 125l16 -55l11 -74q16 14 32 26.5t36 25.5q33 22 65 34q56 21 110 27q51 0 86 -25q-63 0 -153 -48t-164 -147.5t-74 -228.5
q0 -186 126.5 -291.5t322.5 -105.5q192 0 316 109t124 272v364q0 26 -12.5 36t-30.5 15q-26 0 -61 -18q0 28 8 49.5t26 40.5q37 37 84 37h9l53 94l63 82v-317q53 44 140 71q20 6 35 9.5t52 10.5q24 3 49 5t54 2h338q48 0 79.5 4.5t49.5 9.5t41 15q74 30 129 69l43 35v-451
v-25q-3 -17 -5 -31t-11 -38h163v-139h-1167zM1989 442q-47 -13 -107 -24l-70 -5l-75 -3h-332q-105 0 -197 -58q-84 -54 -88 -86v-127h758q55 0 83 28t28 66v209z" />
    <glyph glyph-name="quotedblright" unicode="&#xf278;" horiz-adv-x="2130" 
d="M2075 72q-63 -72 -197 -72h-768q0 -186 -157.5 -319.5t-411.5 -133.5q-241 0 -391 139t-150 371q0 19 1 39t4 42.5t6.5 41.5t10.5 45l27 98l33 103l45 125l20 -68l7 -61q66 58 125 82l47 18l29 9l22 5l26 5q42 0 80 -31q-63 0 -153 -48t-164 -147.5t-74 -228.5
q0 -186 126.5 -291.5t322.5 -105.5q192 0 316 109t124 272v364q0 26 -12.5 36t-30.5 15q-21 0 -35 -6l-26 -12q0 28 8 49.5t26 40.5q37 37 84 37h9l49 90l67 86v-317q53 44 140 71q20 6 35 9.5t52 10.5q24 3 49 5t54 2h338q48 0 79.5 4.5t49.5 9.5t41 15q74 30 129 69l43 35
v-451q0 -94 -55 -161zM1989 442q-47 -13 -107 -24l-70 -5l-75 -3h-332q-105 0 -197 -58q-84 -54 -88 -86v-127h758q55 0 83 28t28 66v209z" />
    <glyph glyph-name="bullet" unicode="&#xf279;" horiz-adv-x="1331" 
d="M850 809q-35 -27 -68 -27q-35 0 -67 27q-29 27 -29 68q0 20 6.5 36.5t22.5 30.5q27 29 67 29q21 0 35.5 -6.5t32.5 -22.5q29 -29 29 -67q0 -36 -29 -68zM1315 139q-40 -90 -104.5 -114.5t-204.5 -24.5h-1026v139h202v295q0 24 -13 37.5t-30 13.5q-12 0 -26 -10
q-5 -2 -15.5 -4.5t-17.5 -3.5q0 57 35 92q34 37 82 37h8l25 42l40 58l25 39l27 35v-317q60 48 140.5 73t188.5 25h338q48 0 79.5 4.5t49.5 9.5t41 15q74 30 129 69l43 35v-451q0 -32 -3.5 -52.5t-12.5 -41.5zM1190 442q-47 -13 -107 -24l-70 -5l-75 -3h-332q-57 0 -103 -14
t-93 -46q-83 -54 -88 -84v-127h757q51 0 88 31q23 25 23 63v209z" />
    <glyph glyph-name="endash" unicode="&#xf27a;" horiz-adv-x="1405" 
d="M850 809q-35 -27 -68 -27q-35 0 -67 27q-29 27 -29 68q0 20 6.5 36.5t22.5 30.5q27 29 67 29q21 0 35.5 -6.5t32.5 -22.5q29 -29 29 -67q0 -36 -29 -68zM-20 0v139h202v295q0 24 -13 37.5t-30 13.5q-12 0 -26 -10q-5 -2 -15.5 -4.5t-17.5 -3.5q0 57 35 92q34 37 82 37h8
l25 42l40 58l25 39l27 35v-317q60 48 140.5 73t188.5 25h338q48 0 79.5 4.5t49.5 9.5t41 15q74 30 129 69l43 35v-451v-25q-3 -17 -5 -31t-11 -38h129v-139h-1464zM1190 442q-47 -13 -107 -24l-70 -5l-75 -3h-332q-57 0 -103 -14t-93 -46q-83 -54 -88 -84v-127h757
q51 0 88 31q23 25 23 63v209z" />
    <glyph glyph-name="emdash" unicode="&#xf27b;" horiz-adv-x="759" 
d="M719 -409q0 -8 -16 -11q-24 0 -86 44q-70 54 -140 140q-81 106 -137 251q-61 0 -98.5 9t-41.5 28q34 29 63 67.5t29 81.5q-35 0 -71 -32l-73 -66q-12 0 -22 28l-8 29l-7 52q-36 17 -53.5 32t-20.5 32q0 12 15 30q19 20 55 42q0 41 9 71.5t24 32.5q33 -36 72 -66t80 -30
q-5 43 -35 79l-65 71q0 9 44 25q50 14 100 14q11 35 24.5 69t31.5 68l33 61q8 14 18 29.5t23 32.5q61 87 136 146q59 47 83 47q11 0 14 -16l-12 -16l-37 -44q-59 -68 -99 -139q-24 -47 -49 -115q-18 -60 -30 -129q42 -6 52.5 -12.5t14.5 -18.5l-17 -15l-18 -17l-30 -34
q-30 -39 -30 -81q34 0 76 30l68 68q6 0 26 -36q14 -37 14 -74q12 -5 19 -9t16 -11q16 -9 21 -16l10 -13q2 -2 5 -18q0 -9 -14 -26l-22 -18l-31 -20l-3 -47q-3 -24 -8 -35q-9 -25 -26 -25q-25 28 -61.5 58t-86.5 36q0 -36 32 -77l66 -74q0 -9 -13 -16l-59 -15
q21 -110 87 -225.5t146 -184.5q12 -12 13 -22zM640 948q-90 -60 -165 -171l-33 -55l-33 -65l-21 -52l-35 -91q-75 0 -91 -3.5t-20 -13.5l40 -39q13 -13 38 -57q15 27 27.5 39.5t22.5 15.5q7 0 13 -6l11 -17l19 -32q13 33 35 57l41 44l-3 2l-22 9l-26 5l19 79q14 61 23 80
q21 73 56 131q17 29 43 64l27 36zM662 286q0 14 -62 38q0 34 -7 58q-6 26 -10 27l-48 -44q-29 -24 -58 -36q64 -27 64 -49q0 -14 -14 -22l-25 -13l-22 -11q36 -12 64 -34l44 -41q6 0 9 20l3 58q57 31 62 49zM455 280q0 35 -25 61q-28 25 -61 25q-36 0 -61.5 -25.5
t-25.5 -60.5q0 -33 24 -60q24 -24 63 -24q30 0 58 24t28 60zM259 233q-28 12 -44 24t-19 25q0 23 62 45l-32 13l-33 21l-45 42l-3 -5l-7 -16l-2 -58q-57 -29 -62 -48q0 -17 62 -39l1 -30l6 -33q3 -17 9 -22l10 7l26 24q31 32 71 50zM670 -382q-75 66 -135 171
q-67 120 -91 256q48 0 53 15l-41 40q-22 23 -43 61q-13 -32 -23 -42q-8 -10 -21 -13q-24 0 -46 55q-12 -37 -37 -63l-36 -40l4 -2l15 -5l42 -6l24 1l23 2q19 -63 47.5 -119.5t66.5 -113.5q42 -63 90 -111q22 -22 50 -44.5t58 -41.5z" />
    <glyph glyph-name="tilde" unicode="&#xf27c;" horiz-adv-x="2216" 
d="M1626 813q-12 -9 -33 -19q-6 -2 -16.5 -4.5t-17.5 -3.5q-36 0 -68 27q-29 29 -29 68q0 20 6.5 36.5t22.5 30.5q27 29 68 29q18 0 34 -6t33 -23q29 -27 29 -67q0 -36 -29 -68zM1110 0q0 -186 -157.5 -319.5t-411.5 -133.5q-241 0 -391 139t-150 371q0 19 1 39t4 42.5
t6.5 41.5t10.5 45l27 98l33 103l45 125l16 -55l11 -74q16 14 32 26.5t36 25.5q33 22 65 34q56 21 110 27q51 0 86 -25q-63 0 -153 -48t-164 -147.5t-74 -228.5q0 -186 126.5 -291.5t322.5 -105.5q192 0 316 109t124 272v364q0 26 -12.5 36t-30.5 15q-26 0 -61 -18
q0 28 8 49.5t26 40.5q37 37 84 37h9l53 94l63 82v-317q53 44 140 71q20 6 35 9.5t52 10.5q24 3 49 5t54 2h338q48 0 79.5 4.5t49.5 9.5t41 15q74 30 129 69l43 35v-451v-25q-3 -17 -5 -31t-11 -38h163v-139h-1167zM1989 442q-47 -13 -107 -24l-70 -5l-75 -3h-332
q-105 0 -197 -58q-84 -54 -88 -86v-127h758q55 0 83 28t28 66v209z" />
    <glyph glyph-name="trademark" unicode="&#xf27d;" horiz-adv-x="759" 
d="M722 303q0 -10 -15 -31q-19 -20 -55 -42q0 -43 -9.5 -73.5t-22.5 -30.5l-37 35l-36 30q-17 13 -38 22t-42 9q5 -43 35 -78l65 -71q0 -9 -44 -24.5t-99 -15.5l-26 -70q-13 -33 -31 -67q-34 -70 -73 -123q-63 -88 -137 -146q-59 -47 -83 -47q-11 0 -14 15l18 25l30 35
q62 72 99 140q60 111 81 244l-37 7l-19 7q-8 4 -11 17l33 31l31 35q30 39 30 82q-41 0 -76 -31l-68 -68q-8 0 -26 35q-13 39 -13 75q-39 18 -56 35l-10 12q-6 9 -6 20q0 12 12 24.5t55 40.5q0 49 12 82q11 24 26 24q26 -28 65 -62q32 -24 82 -32q0 40 -32 76l-67 76
q0 8 13 15l60 15q-13 68 -32 114q-18 52 -55 112q-30 56 -67 101t-78 83q-15 14 -15 22q0 7 17 11q28 0 87 -43q73 -53 139 -140q21 -27 39 -54.5t36 -61.5q35 -64 63 -136h30.5t28.5 -2q10 0 17 -1t27 -8q36 -9 36 -26l-33 -31l-30 -36q-29 -40 -29 -82q35 0 70 32l74 67
q11 0 19.5 -24t17.5 -86l32 -17l23 -16q14 -13 19 -30zM510 521l-18 6l-44 6h-24l-23 -2q-18 63 -48 120l-30 56q-7 14 -15 27t-20 29q-84 122 -199 198q37 -34 70 -77q29 -36 65 -96q65 -117 91 -255h-16l-21 -6q-13 -3 -16 -9l42 -40q9 -9 19.5 -24.5t21.5 -35.5
q15 30 24 42t22 13q26 0 45 -55q11 31 36 62zM685 303l-4 6l-12 11l-15 8l-30 13l-1 32q0 8 -6 26q-6 26 -10 27l-49 -45q-26 -24 -58 -36q25 -8 47 -27q15 -12 16 -22q0 -23 -61 -45q33 -11 64 -34l45 -42l4 6l5 13l3 35l1 25l45 29q15 9 16 20zM477 298q0 33 -25 58.5
t-61 25.5q-31 0 -61 -24q-26 -24 -26 -60q0 -35 26 -61q28 -25 61 -25q35 0 60.5 25.5t25.5 60.5zM282 250q-26 9 -46 24q-15 15 -18 24q0 21 62 46q-35 12 -65 34l-44 42q-6 0 -10 -20l-2 -59q-34 -18 -46.5 -29t-15.5 -20q0 -14 62 -38q0 -32 6 -61l5 -16l5 -8
q6 0 37 31.5t70 49.5zM517 81l-38 37q-20 23 -41 59q-12 -24 -26 -38t-23 -17q-8 0 -16 8l-28 47q-12 -31 -34 -57l-41 -43q0 -8 28 -12q16 0 22 -5q-28 -129 -40 -159l-13 -44l-12 -24q-14 -37 -31 -60l-18 -31l-25 -35q-29 -40 -62 -77q86 58 161 170q71 106 125 264h18
h13h12h8q32 0 41 4q14 3 20 13z" />
    <glyph glyph-name="scaron" unicode="&#xf27e;" horiz-adv-x="2130" 
d="M1675 752q-24 -27 -67 -27q-36 0 -68 27q-29 29 -29 67t29 68q31 28 68 28q33 0 64.5 -28t31.5 -68q0 -19 -5 -32t-9.5 -19.5t-14.5 -15.5zM2075 72q-63 -72 -197 -72h-768q0 -186 -157.5 -319.5t-411.5 -133.5q-241 0 -391 139t-150 371q0 19 1 39t4 42.5t6.5 41.5
t10.5 45l27 98l33 103l45 125l20 -68l7 -61q66 58 125 82l47 18l29 9l22 5l26 5q42 0 80 -31q-63 0 -153 -48t-164 -147.5t-74 -228.5q0 -186 126.5 -291.5t322.5 -105.5q192 0 316 109t124 272v364q0 26 -12.5 36t-30.5 15q-21 0 -35 -6l-26 -12q0 28 8 49.5t26 40.5
q37 37 84 37h9l49 90l67 86v-317q53 44 140 71q20 6 35 9.5t52 10.5q24 3 49 5t54 2h338q48 0 79.5 4.5t49.5 9.5t41 15q74 30 129 69l43 35v-451q0 -94 -55 -161zM1989 442q-47 -13 -107 -24l-70 -5l-75 -3h-332q-105 0 -197 -58q-84 -54 -88 -86v-127h758q55 0 83 28
t28 66v209z" />
    <glyph glyph-name="DEL" unicode="&#xf27f;" horiz-adv-x="1286" 
d="M1231 72q-63 -72 -197 -72h-1054v139h1054q51 0 88 31q23 25 23 63v209q-47 -13 -107 -24l-70 -5l-75 -3h-272q-104 0 -195 -58q-87 -54 -90 -86v-100h-139v948q0 24 -13 37.5t-30 13.5q-33 0 -60 -18q0 54 37 91.5t82 37.5h8l68 133l47 70v-1028q28 25 60.5 42t75.5 31
q23 7 52 13q10 2 36 7q24 3 49.5 5t56.5 2h278q48 0 79.5 4.5t49.5 9.5t41 15q74 30 129 69l43 35v-451q0 -96 -55 -161zM225 -209q-32 -33 -71 -60q-20 -14 -39 -24.5t-45 -19.5l24 41l30 51l26 53l22 74q4 16 6 32t2 35h135q0 -44 -22 -89.5t-68 -92.5z" />
    <glyph glyph-name="oe" unicode="&#xf280;" horiz-adv-x="1323" 
d="M1325 0h-428v139h288v291q0 23 -16 39q-10 12 -29 16q-18 0 -30 -6q-7 -1 -29 -12q0 49 35.5 89t83.5 40h10l65 100l50 74v-770zM713 -237q0 -21 -6.5 -35.5t-22.5 -32.5q-28 -28 -68 -28q-33 0 -64.5 28t-31.5 68q0 17 6 32.5t21 32.5q27 29 69 29q39 0 68 -29
q14 -12 21.5 -28t7.5 -37zM1288 -223q0 -38 -28 -66t-69 -28q-39 0 -67 28q-29 26 -29 66q0 19 5 32t9.5 19.5t14.5 15.5q27 29 67 29q33 0 65 -28.5t32 -67.5zM942 0h-987v139h407q-65 38 -116 94l-46 52l-33 46l-33 64l-40 92q-9 23 -17.5 53.5t-14 65t-8.5 77t-3 89.5
v348v43l121 -229h8q47 0 83 -36t36 -91l-2 -27q-3 20 -23 31q-18 12 -34 12q-24 0 -43 -16q-18 -11 -21 -43v-19q0 -288 207 -447t491 -159h68v-139z" />
    <glyph glyph-name="c157" unicode="&#xf281;" 
d="M-20 0v139h382q-65 38 -116 94l-46 52l-33 46l-33 64l-40 92q-9 23 -17.5 53.5t-14 65t-8.5 77t-3 89.5v348l55 -78l66 -108h8q47 0 83 -36t36 -91q-17 9 -31 12l-28 4q-24 0 -43 -16q-18 -11 -21 -43v-19q0 -288 207 -447t491 -159h142v291q0 22 -15 39q-9 11 -30 16
q-21 0 -35 -6l-23 -12q0 57 36 93t83 36h8l54 92l61 82v-770h-1175zM951 -314q-24 -27 -67 -27q-40 0 -68.5 28t-28.5 66q0 42 29 68q11 11 29 20q17 6 39 9q33 0 64.5 -28.5t31.5 -68.5q0 -18 -6 -34t-23 -33z" />
    <glyph glyph-name="c158" unicode="&#xf282;" 
d="M1004 778q-16 -14 -32.5 -21t-37.5 -7q-19 0 -34.5 6t-33.5 22q-28 31 -28 68q0 36 26 65q29 29 70 29q18 0 34 -6t33 -23q29 -27 29 -65q0 -41 -26 -68zM-20 0v139h382q-65 38 -116 94l-46 52l-33 46l-33 64l-40 92q-9 23 -17.5 53.5t-14 65t-8.5 77t-3 89.5v348l55 -78
l66 -108h8q47 0 83 -36t36 -91q-17 9 -31 12l-28 4q-24 0 -43 -16q-18 -11 -21 -43v-19q0 -288 207 -447t491 -159h142v291q0 22 -15 39q-9 11 -30 16q-21 0 -35 -6l-23 -12q0 57 36 93t83 36h8l54 92l61 82v-770h-1175zM385 -262q-27 -29 -68 -29q-18 0 -34 6t-33 21
q-29 24 -29 67q0 41 27 70q10 10 30 20q21 7 39 7q33 0 66 -27q14 -14 21.5 -31.5t7.5 -38.5q0 -33 -27 -65z" />
    <glyph glyph-name="Ydieresis" unicode="&#xf283;" 
d="M1069 940q-29 -29 -68 -29q-33 0 -64.5 28t-31.5 69q0 19 5 31t9.5 18.5t14.5 15.5q28 31 67 31q36 0 66 -31q31 -28 31 -65q0 -42 -29 -68zM858 940q-29 -29 -67 -29q-33 0 -65 28.5t-32 68.5q0 19 5 31t9.5 18.5t14.5 15.5q28 31 68 31q34 0 65 -31q31 -28 31 -65
q0 -21 -6.5 -35.5t-22.5 -32.5zM-20 0v139h382q-65 38 -116 94l-46 52l-33 46l-33 64l-40 92q-9 23 -17.5 53.5t-14 65t-8.5 77t-3 89.5v348l55 -78l66 -108h8q47 0 83 -36t36 -91q-17 9 -31 12l-28 4q-24 0 -43 -16q-18 -11 -21 -43v-19q0 -288 207 -447t491 -159h142v291
q0 22 -15 39q-9 11 -30 16q-21 0 -35 -6l-23 -12q0 57 36 93t83 36h8l54 92l61 82v-770h-1175zM559 -314q-24 -27 -67 -27q-40 0 -68.5 28t-28.5 66q0 42 29 68q11 11 29 20q17 6 39 9q33 0 64.5 -28.5t31.5 -68.5q0 -18 -6 -34t-23 -33z" />
    <glyph glyph-name="nonbreakingspace" unicode="&#xf284;" 
d="M1004 778q-16 -14 -32.5 -21t-37.5 -7q-19 0 -34.5 6t-33.5 22q-28 31 -28 68q0 36 26 65q29 29 70 29q18 0 34 -6t33 -23q29 -27 29 -65q0 -41 -26 -68zM791 778q-26 -28 -68 -28q-19 0 -34.5 6t-33.5 22q-28 31 -28 68q0 36 26 65q29 29 70 29q21 0 35.5 -6.5
t32.5 -22.5q28 -28 28 -65q0 -40 -28 -68zM-20 0v139h382q-65 38 -116 94l-46 52l-33 46l-33 64l-40 92q-9 23 -17.5 53.5t-14 65t-8.5 77t-3 89.5v348l55 -78l66 -108h8q47 0 83 -36t36 -91q-17 9 -31 12l-28 4q-24 0 -43 -16q-18 -11 -21 -43v-19q0 -288 207 -447
t491 -159h142v291q0 22 -15 39q-9 11 -30 16q-21 0 -35 -6l-23 -12q0 57 36 93t83 36h8l54 92l61 82v-770h-1175z" />
    <glyph glyph-name="exclamdown" unicode="&#xf285;" 
d="M1069 940q-29 -29 -68 -29q-33 0 -64.5 28t-31.5 69q0 19 5 31t9.5 18.5t14.5 15.5q28 31 67 31q36 0 66 -31q31 -28 31 -65q0 -42 -29 -68zM858 940q-29 -29 -67 -29q-33 0 -65 28.5t-32 68.5q0 19 5 31t9.5 18.5t14.5 15.5q28 31 68 31q34 0 65 -31q31 -28 31 -65
q0 -21 -6.5 -35.5t-22.5 -32.5zM-20 0v139h382q-65 38 -116 94l-46 52l-33 46l-33 64l-40 92q-9 23 -17.5 53.5t-14 65t-8.5 77t-3 89.5v348l55 -78l66 -108h8q47 0 83 -36t36 -91q-17 9 -31 12l-28 4q-24 0 -43 -16q-18 -11 -21 -43v-19q0 -288 207 -447t491 -159h142v291
q0 22 -15 39q-9 11 -30 16q-21 0 -35 -6l-23 -12q0 57 36 93t83 36h8l54 92l61 82v-770h-1175zM559 498q-24 -27 -67 -27q-40 0 -68.5 28t-28.5 66q0 42 29 68q11 11 29 20q17 6 39 9q34 0 64 -29q32 -27 32 -68q0 -19 -5 -32t-9.5 -19.5t-14.5 -15.5z" />
    <glyph glyph-name="cent" unicode="&#xf286;" 
d="M-20 0v139h382q-65 38 -116 94l-46 52l-33 46l-33 64l-40 92q-9 23 -17.5 53.5t-14 65t-8.5 77t-3 89.5v348l55 -78l66 -108h8q47 0 83 -36t36 -91q-17 9 -31 12l-28 4q-24 0 -43 -16q-18 -11 -21 -43v-19q0 -288 207 -447t491 -159h142v1000q0 21 -15 39q-9 11 -30 16
q-21 0 -35 -6l-23 -12q0 55 37 92t82 37h8l54 92l61 82v-1479h-1175zM385 -262q-27 -29 -68 -29q-18 0 -34 6t-33 21q-29 24 -29 67q0 41 27 70q10 10 30 20q21 7 39 7q33 0 66 -27q14 -14 21.5 -31.5t7.5 -38.5q0 -33 -27 -65z" />
    <glyph glyph-name="sterling" unicode="&#xf287;" 
d="M-20 0v139h382q-65 38 -116 94l-46 52l-33 46l-33 64l-40 92q-9 23 -17.5 53.5t-14 65t-8.5 77t-3 89.5v348l55 -78l66 -108h8q47 0 83 -36t36 -91q-17 9 -31 12l-28 4q-24 0 -43 -16q-18 -11 -21 -43v-19q0 -288 207 -447t491 -159h142v1000q0 21 -15 39q-9 11 -30 16
q-21 0 -35 -6l-23 -12q0 55 37 92t82 37h8l54 92l61 82v-1479h-1175z" />
    <glyph glyph-name="currency" unicode="&#xf288;" 
d="M-20 0v139h382q-65 38 -116 94l-46 52l-33 46l-33 64l-40 92q-9 23 -17.5 53.5t-14 65t-8.5 77t-3 89.5v348l55 -78l66 -108h8q47 0 83 -36t36 -91q-17 9 -31 12l-28 4q-24 0 -43 -16q-18 -11 -21 -43v-19q0 -288 207 -447t491 -159h142v1000q0 21 -15 39q-9 11 -30 16
q-21 0 -35 -6l-23 -12q0 55 37 92t82 37h8l54 92l61 82v-1479h-1175zM647 545q-24 -27 -67 -27q-40 0 -68.5 28t-28.5 66q0 42 29 68q29 29 68 29q33 0 64.5 -27.5t31.5 -69.5q0 -19 -5 -32t-9.5 -19.5t-14.5 -15.5z" />
    <glyph glyph-name="yen" unicode="&#xf289;" horiz-adv-x="1638" 
d="M684 524q-28 -28 -68 -28q-33 0 -64.5 28t-31.5 68q0 17 6 32.5t21 32.5q27 29 69 29q39 0 68 -29q14 -13 21.5 -29t7.5 -36q0 -21 -6.5 -35.5t-22.5 -32.5zM1154 0l15 139h329v336l-75 -18l-82 -31q-59 -23 -115 -76q-45 -45 -65 -102l-19 -76l-4 -57l-12 -107
q-12 -92 -66 -158q-23 -28 -57 -58q-27 -26 -70 -56l8 25l17 38l24 74l8 50q3 30 3 81l6 100l6 89q23 145 92 217q19 19 30 29t31 27q14 11 35 25q14 9 20 13l53 29q11 5 26 11.5t28 10.5l174 55l17 7q7 2 20 12l17 8l22 16q17 14 35 58h33v-711h-484zM871 139l109 1
l-9 -140h-104h-912v139h407q-65 38 -116 94l-46 52l-33 46l-33 64l-40 92q-9 23 -17.5 53.5t-14 65t-8.5 77t-3 89.5v348v43l121 -229h8q47 0 83 -36t36 -91l-2 -27q-3 20 -23 31q-18 12 -34 12q-24 0 -43 -16q-18 -11 -21 -43v-19q0 -288 205 -448q101 -76 225 -119
q120 -39 265 -39z" />
    <glyph glyph-name="brokenbar" unicode="&#xf28a;" horiz-adv-x="1638" 
d="M1154 0l15 139h329v336l-75 -18l-82 -31q-59 -23 -115 -76q-45 -45 -65 -102l-19 -76l-4 -57l-12 -107q-12 -92 -66 -158q-23 -28 -57 -58q-27 -26 -70 -56l8 25l17 38l24 74l8 50q3 30 3 81l6 100l6 89q23 145 92 217q19 19 30 29t31 27q14 11 35 25q14 9 20 13l53 29
q11 5 26 11.5t28 10.5l174 55l17 7q7 2 20 12l17 8l22 16q17 14 35 58h33v-711h-484zM871 139l109 1l-9 -140h-104h-912v139h407q-65 38 -116 94l-46 52l-33 46l-33 64l-40 92q-9 23 -17.5 53.5t-14 65t-8.5 77t-3 89.5v348v43l121 -229h8q47 0 83 -36t36 -91l-2 -27
q-3 20 -23 31q-18 12 -34 12q-24 0 -43 -16q-18 -11 -21 -43v-19q0 -288 205 -448q101 -76 225 -119q120 -39 265 -39z" />
    <glyph glyph-name="section" unicode="&#xf28b;" horiz-adv-x="1638" 
d="M684 524q-28 -28 -68 -28q-33 0 -64.5 28t-31.5 68q0 17 6 32.5t21 32.5q27 29 69 29q39 0 68 -29q14 -13 21.5 -29t7.5 -36q0 -21 -6.5 -35.5t-22.5 -32.5zM1154 0l15 139h329v336l-75 -18l-82 -31q-59 -23 -115 -76q-45 -45 -65 -102l-19 -76l-4 -57l-12 -107
q-12 -92 -66 -158q-23 -28 -57 -58q-27 -26 -70 -56l8 25l17 38l24 74l8 50q3 30 3 81l6 100l6 89q23 145 92 217q19 19 30 29t31 27q14 11 35 25q14 9 20 13l53 29q11 5 26 11.5t28 10.5l174 55l17 7q7 2 20 12l17 8l22 16q17 14 35 58h33v-711h-484zM871 139l109 1
l-9 -140h-104h-912v139h407q-65 38 -116 94l-46 52l-33 46l-33 64l-40 92q-9 23 -17.5 53.5t-14 65t-8.5 77t-3 89.5v348v43l121 -229h8q47 0 83 -36t36 -91l-2 -27q-3 20 -23 31q-18 12 -34 12q-24 0 -43 -16q-18 -11 -21 -43v-19q0 -288 205 -448q101 -76 225 -119
q120 -39 265 -39z" />
    <glyph glyph-name="dieresis" unicode="&#xf28c;" horiz-adv-x="1323" 
d="M1325 0h-428v139h288v291q0 23 -16 39q-10 12 -29 16q-18 0 -30 -6q-7 -1 -29 -12q0 49 35.5 89t83.5 40h10l65 100l50 74v-770zM1147 907q0 -21 -6.5 -35.5t-22.5 -32.5q-28 -28 -68 -28q-33 0 -64.5 28t-31.5 68q0 17 6 32.5t21 32.5q27 29 69 29q39 0 68 -29
q14 -13 21.5 -29t7.5 -36zM942 0h-987v139h407q-65 38 -116 94l-46 52l-33 46l-33 64l-40 92q-9 23 -17.5 53.5t-14 65t-8.5 77t-3 89.5v348v43l121 -229h8q47 0 83 -36t36 -91l-2 -27q-3 20 -23 31q-18 12 -34 12q-24 0 -43 -16q-18 -11 -21 -43v-19q0 -288 207 -447
t491 -159h68v-139zM587 -223q0 -38 -29 -68q-34 -26 -68 -26q-39 0 -67 28q-29 26 -29 66q0 19 5 32t9.5 19.5t14.5 15.5q27 29 67 29q33 0 65 -28.5t32 -67.5z" />
    <glyph glyph-name="copyright" unicode="&#xf28d;" horiz-adv-x="1323" 
d="M1325 0h-428v139h288v291q0 23 -16 39q-10 12 -29 16q-18 0 -30 -6q-7 -1 -29 -12q0 49 35.5 89t83.5 40h10l65 100l50 74v-770zM942 0h-987v139h407q-65 38 -116 94l-46 52l-33 46l-33 64l-40 92q-9 23 -17.5 53.5t-14 65t-8.5 77t-3 89.5v348v43l121 -229h8
q47 0 83 -36t36 -91l-2 -27q-3 20 -23 31q-18 12 -34 12q-24 0 -43 -16q-18 -11 -21 -43v-19q0 -288 207 -447t491 -159h68v-139zM1182 904q0 -38 -29 -68q-34 -26 -68 -26q-39 0 -67 28q-29 26 -29 66q0 18 6 34t23 33q27 29 67 29q33 0 65 -29q32 -27 32 -67z" />
    <glyph glyph-name="ordfeminine" unicode="&#xf28e;" horiz-adv-x="1323" 
d="M1325 0h-428v139h288v291q0 23 -16 39q-10 12 -29 16q-18 0 -30 -6q-7 -1 -29 -12q0 49 35.5 89t83.5 40h10l65 100l50 74v-770zM713 592q0 -21 -6.5 -35.5t-22.5 -32.5q-28 -28 -68 -28q-33 0 -64.5 28t-31.5 68q0 17 6 32.5t21 32.5q27 29 69 29q39 0 68 -29
q14 -13 21.5 -29t7.5 -36zM942 0h-987v139h407q-65 38 -116 94l-46 52l-33 46l-33 64l-40 92q-9 23 -17.5 53.5t-14 65t-8.5 77t-3 89.5v348v43l121 -229h8q47 0 83 -36t36 -91l-2 -27q-3 20 -23 31q-18 12 -34 12q-24 0 -43 -16q-18 -11 -21 -43v-19q0 -288 207 -447
t491 -159h68v-139zM1189 932q0 -38 -29 -68q-34 -26 -68 -26q-39 0 -67 28q-29 26 -29 66q0 18 6 34t23 33q27 29 67 29q33 0 65 -29q32 -27 32 -67z" />
    <glyph glyph-name="guillemotleft" unicode="&#xf28f;" horiz-adv-x="1323" 
d="M1325 0h-428v139h288v291q0 23 -16 39q-10 12 -29 16q-18 0 -30 -6q-7 -1 -29 -12q0 49 35.5 89t83.5 40h10l65 100l50 74v-770zM594 -241q0 -21 -6.5 -35.5t-22.5 -32.5q-28 -28 -68 -28q-33 0 -64.5 28t-31.5 68q0 17 6 32.5t21 32.5q27 29 69 29q39 0 68 -29
q14 -12 21.5 -28t7.5 -37zM1288 -223q0 -38 -28 -66t-69 -28q-39 0 -67 28q-29 26 -29 66q0 19 5 32t9.5 19.5t14.5 15.5q27 29 67 29q33 0 65 -28.5t32 -67.5zM942 0h-987v139h407q-65 38 -116 94l-46 52l-33 46l-33 64l-40 92q-9 23 -17.5 53.5t-14 65t-8.5 77t-3 89.5
v348v43l121 -229h8q47 0 83 -36t36 -91l-2 -27q-3 20 -23 31q-18 12 -34 12q-24 0 -43 -16q-18 -11 -21 -43v-19q0 -288 207 -447t491 -159h68v-139zM1077 -223q0 -38 -29 -68q-34 -26 -68 -26q-39 0 -67 28q-29 26 -29 66q0 19 5 32t9.5 19.5t14.5 15.5q27 29 67 29
q33 0 65 -28.5t32 -67.5z" />
    <glyph glyph-name="logicalnot" unicode="&#xf290;" horiz-adv-x="1323" 
d="M1325 0h-428v139h288v291q0 23 -16 39q-10 12 -29 16q-18 0 -30 -6q-7 -1 -29 -12q0 49 35.5 89t83.5 40h10l65 100l50 74v-770zM1288 -223q0 -38 -28 -66t-69 -28q-39 0 -67 28q-29 26 -29 66q0 19 5 32t9.5 19.5t14.5 15.5q27 29 67 29q33 0 65 -28.5t32 -67.5zM942 0
h-987v139h407q-65 38 -116 94l-46 52l-33 46l-33 64l-40 92q-9 23 -17.5 53.5t-14 65t-8.5 77t-3 89.5v348v43l121 -229h8q47 0 83 -36t36 -91l-2 -27q-3 20 -23 31q-18 12 -34 12q-24 0 -43 -16q-18 -11 -21 -43v-19q0 -288 207 -447t491 -159h68v-139zM1077 -223
q0 -38 -29 -68q-34 -26 -68 -26q-39 0 -67 28q-29 26 -29 66q0 19 5 32t9.5 19.5t14.5 15.5q27 29 67 29q33 0 65 -28.5t32 -67.5z" />
    <glyph glyph-name="minus" unicode="&#xf291;" horiz-adv-x="1323" 
d="M1325 0h-428v139h288v291q0 23 -16 39q-10 12 -29 16q-18 0 -30 -6q-7 -1 -29 -12q0 49 35.5 89t83.5 40h10l65 100l50 74v-770zM713 592q0 -21 -6.5 -35.5t-22.5 -32.5q-28 -28 -68 -28q-33 0 -64.5 28t-31.5 68q0 17 6 32.5t21 32.5q27 29 69 29q39 0 68 -29
q14 -13 21.5 -29t7.5 -36zM1288 -223q0 -38 -28 -66t-69 -28q-39 0 -67 28q-29 26 -29 66q0 19 5 32t9.5 19.5t14.5 15.5q27 29 67 29q33 0 65 -28.5t32 -67.5zM942 0h-987v139h407q-65 38 -116 94l-46 52l-33 46l-33 64l-40 92q-9 23 -17.5 53.5t-14 65t-8.5 77t-3 89.5
v348v43l121 -229h8q47 0 83 -36t36 -91l-2 -27q-3 20 -23 31q-18 12 -34 12q-24 0 -43 -16q-18 -11 -21 -43v-19q0 -288 207 -447t491 -159h68v-139zM1077 -223q0 -38 -29 -68q-34 -26 -68 -26q-39 0 -67 28q-29 26 -29 66q0 19 5 32t9.5 19.5t14.5 15.5q27 29 67 29
q33 0 65 -28.5t32 -67.5z" />
    <glyph glyph-name="registered" unicode="&#xf292;" horiz-adv-x="1720" 
d="M1448 -293q-26 -26 -68 -26q-39 0 -67 28q-29 26 -29 66q0 19 5 32t9.5 19.5t14.5 15.5q27 29 67 29q33 0 65 -28.5t32 -67.5q0 -38 -29 -68zM1110 0q0 -186 -157.5 -319.5t-411.5 -133.5q-241 0 -391 139t-150 371q0 19 1 39t4 42.5t6.5 41.5t10.5 45l27 98l33 103
l45 125l18 -45l8 -25l3 -27v-13l-2 -19q33 29 64 49t63 35l41 15l36 12q18 6 45 6q45 0 80 -29q-63 0 -153 -48t-164 -147.5t-74 -228.5q0 -186 126.5 -291.5t322.5 -105.5q192 0 316 109t124 272v364q0 26 -12.5 36t-30.5 15q-29 0 -61 -18q0 28 8 49.5t26 40.5
q37 37 84 37h9l61 98l55 78v-631h393v291q0 22 -14 39q-9 12 -31 16q-19 0 -34 -8l-23 -10q0 49 35.5 89t83.5 40h8l55 96l62 78v-631h131v-139h-676zM629 29q-29 -29 -70 -29q-18 0 -35 6q-15 7 -30 23q-29 21 -29 65q0 42 30 69t64 27q40 0 68 -29.5t28 -66.5
q0 -36 -26 -65z" />
    <glyph glyph-name="macron" unicode="&#xf293;" horiz-adv-x="1720" 
d="M1618 866q-31 -28 -68 -28q-33 0 -64.5 28t-31.5 68q0 17 6 32.5t21 32.5q27 29 69 29q21 0 35.5 -6.5t32.5 -22.5q29 -29 29 -65q0 -38 -29 -68zM1407 866q-28 -28 -68 -28q-33 0 -64.5 28t-31.5 68q0 17 6 32.5t21 32.5q27 29 69 29q21 0 35.5 -6.5t32.5 -22.5
q29 -29 29 -65q0 -38 -29 -68zM1110 0q0 -186 -157.5 -319.5t-411.5 -133.5q-241 0 -391 139t-150 371q0 19 1 39t4 42.5t6.5 41.5t10.5 45l27 98l33 103l45 125l18 -45l8 -25l3 -27v-13l-2 -19q33 29 64 49t63 35l41 15l36 12q18 6 45 6q45 0 80 -29q-63 0 -153 -48
t-164 -147.5t-74 -228.5q0 -186 126.5 -291.5t322.5 -105.5q192 0 316 109t124 272v364q0 26 -12.5 36t-30.5 15q-29 0 -61 -18q0 28 8 49.5t26 40.5q37 37 84 37h9l61 98l55 78v-631h393v291q0 22 -14 39q-9 12 -31 16q-19 0 -34 -8l-23 -10q0 49 35.5 89t83.5 40h8l55 96
l62 78v-631h131v-139h-676zM629 29q-29 -29 -70 -29q-18 0 -35 6q-15 7 -30 23q-29 21 -29 65q0 42 30 69t64 27q40 0 68 -29.5t28 -66.5q0 -36 -26 -65z" />
    <glyph glyph-name="degree" unicode="&#xf294;" horiz-adv-x="1720" 
d="M1597 -285q-26 -26 -67 -26q-21 0 -35 6t-33 22q-28 26 -28 66q0 39 28 68q30 28 68 28q18 0 33 -6t32 -23q31 -28 31 -67q0 -21 -6.5 -35.5t-22.5 -32.5zM1386 -285q-26 -26 -67 -26q-21 0 -35 6t-33 22q-28 26 -28 66q0 39 28 68q30 28 68 28q18 0 33 -6t32 -23
q31 -28 31 -67q0 -21 -6.5 -35.5t-22.5 -32.5zM1110 0q0 -186 -157.5 -319.5t-411.5 -133.5q-241 0 -391 139t-150 371q0 19 1 39t4 42.5t6.5 41.5t10.5 45l27 98l33 103l45 125l18 -45l8 -25l3 -27v-13l-2 -19q33 29 64 49t63 35l41 15l36 12q18 6 45 6q45 0 80 -29
q-63 0 -153 -48t-164 -147.5t-74 -228.5q0 -186 126.5 -291.5t322.5 -105.5q192 0 316 109t124 272v364q0 26 -12.5 36t-30.5 15q-29 0 -61 -18q0 28 8 49.5t26 40.5q37 37 84 37h9l61 98l55 78v-631h393v291q0 22 -14 39q-9 12 -31 16q-19 0 -34 -8l-23 -10q0 49 35.5 89
t83.5 40h8l55 96l62 78v-631h131v-139h-676zM629 29q-29 -29 -70 -29q-18 0 -35 6q-15 7 -30 23q-29 21 -29 65q0 42 30 69t64 27q40 0 68 -29.5t28 -66.5q0 -36 -26 -65z" />
    <glyph glyph-name="plusminus" unicode="&#xf295;" horiz-adv-x="1825" 
d="M1311 0l1 139h241v971q0 23 -16 39q-9 12 -29 16q-16 0 -31 -6l-15 -6l-13 -6q0 19 1 27t8 27t26 38q37 37 84 37h10l65 119l49 84v-1479h-381zM1135 682q-56 -129 -157.5 -210t-154.5 -107l-58 -25l-71 -25l-110 111q27 5 53 10.5t50 12.5q42 11 62 19l36 15q16 6 24 13
l29 17l59 42q68 47 136.5 171.5t68.5 270.5q0 126 -92 263q-87 129 -172 157q18 6 41 6l34 -3q6 -1 16.5 -4t18.5 -7q27 -9 82 -49q44 -33 103 -119l34 64l35 59v-262q0 -262 -67 -420zM1155 0q-54 0 -89 23q-33 24 -60 69l-134 266l29 15l31 20l55 51l135 -270l7 -11
l12 -11q7 -5 30 -13h215v-139h-231zM854 563l-63 -39l-162 326l-23 31l-20 10l-23 -10l-33 -29l-151 -152l-37 -26q-24 -12 -35 -12l377 -377q27 -24 48 -57q20 -28 38 -74q35 -79 35 -154q0 -159 -118 -278t-281 -119q-165 0 -285 116q-57 57 -87 127q-14 36 -21 72.5
t-7 81.5q0 140 96 250q96 101 246 131l115 -115h-49q-105 0 -187 -78.5t-82 -187.5q0 -103 75.5 -180.5t185.5 -77.5q102 0 182 76q35 35 56 82q10 23 15 47t5 53q0 64 -17 98q-12 37 -55 84l-565 566l34 -5l29 -2l55 3q12 2 25 4.5t28 6.5q27 8 51 20.5t42 33.5l141 141
q90 90 154 90q47 0 92 -30q37 -29 65 -78l162 -322q-8 -13 -51 -47z" />
    <glyph glyph-name="twosuperior" unicode="&#xf296;" horiz-adv-x="1309" 
d="M272 0l15 139h882v291q0 23 -16 39q-10 12 -29 16h-26l-33 -18q0 49 35.5 89t83.5 40h10l37 80l78 94v-770h-1037zM1118 -262q-27 -29 -69 -29q-37 0 -66 29q-29 23 -29 65q0 38 27 70q10 10 30 20q9 3 18 5t20 2q39 0 67.5 -30.5t28.5 -66.5q0 -17 -6 -32.5t-21 -32.5z
M616 166v309l-75 -18l-82 -31q-59 -23 -115 -76q-45 -45 -65 -102l-19 -76l-4 -57l-12 -107q-12 -92 -66 -158q-23 -28 -57 -58q-27 -26 -70 -56l25 61l11 33l11 39q13 44 13 135l6 100l6 89q23 145 92 217q19 19 30 29t31 27q14 11 35 25q14 9 20 13l53 29q11 5 26 11.5
t28 10.5l174 55l17 7q7 2 20 12l29 16l78 66v-545h-140zM84 0h-104v139h114z" />
    <glyph glyph-name="threesuperior" unicode="&#xf297;" horiz-adv-x="1309" 
d="M1159 901q-29 -29 -69 -29q-37 0 -66 29q-13 10 -22 27q-7 18 -7 39q0 38 27 67q24 29 68 29q39 0 67 -31q29 -27 29 -65q0 -36 -27 -66zM948 901q-29 -29 -69 -29q-37 0 -66 29q-13 10 -22 27q-7 18 -7 39q0 38 27 67q24 29 68 29q39 0 67 -31q29 -27 29 -65
q0 -36 -27 -66zM272 0l15 139h882v291q0 23 -16 39q-10 12 -29 16h-26l-33 -18q0 49 35.5 89t83.5 40h10l37 80l78 94v-770h-1037zM616 166v309l-75 -18l-82 -31q-59 -23 -115 -76q-45 -45 -65 -102l-19 -76l-4 -57l-12 -107q-12 -92 -66 -158q-23 -28 -57 -58
q-27 -26 -70 -56l25 61l11 33l11 39q13 44 13 135l6 100l6 89q23 145 92 217q19 19 30 29t31 27q14 11 35 25q14 9 20 13l53 29q11 5 26 11.5t28 10.5l174 55l17 7q7 2 20 12l29 16l78 66v-545h-140zM84 0h-104v139h114z" />
    <glyph glyph-name="acute" unicode="&#xf298;" horiz-adv-x="1309" 
d="M272 0l15 139h882v291q0 23 -16 39q-10 12 -29 16h-26l-33 -18q0 49 35.5 89t83.5 40h10l37 80l78 94v-770h-1037zM1159 -262q-27 -29 -69 -29q-38 0 -66 29q-29 23 -29 65q0 38 27 70q10 10 30 20q9 3 18 5t20 2q39 0 67.5 -30.5t28.5 -66.5q0 -17 -6 -32.5t-21 -32.5z
M948 -262q-27 -29 -69 -29q-37 0 -66 29q-29 23 -29 65q0 38 27 70q10 10 30 20q9 3 18 5t20 2q39 0 67.5 -30.5t28.5 -66.5q0 -17 -6 -32.5t-21 -32.5zM616 166v309l-75 -18l-82 -31q-59 -23 -115 -76q-45 -45 -65 -102l-19 -76l-4 -57l-12 -107q-12 -92 -66 -158
q-23 -28 -57 -58q-27 -26 -70 -56l25 61l11 33l11 39q13 44 13 135l6 100l6 89q23 145 92 217q19 19 30 29t31 27q14 11 35 25q14 9 20 13l53 29q11 5 26 11.5t28 10.5l174 55l17 7q7 2 20 12l29 16l78 66v-545h-140zM84 0h-104v139h114z" />
    <glyph glyph-name="mu" unicode="&#xf299;" horiz-adv-x="1309" 
d="M1077 928q-27 -29 -69 -29q-29 0 -64 27q-31 28 -31 69q0 33 27 66q20 23 68 29q41 0 67 -29q29 -26 29 -66t-27 -67zM272 0l15 139h882v291q0 23 -16 39q-10 12 -29 16h-26l-33 -18q0 49 35.5 89t83.5 40h10l37 80l78 94v-770h-1037zM616 166v309l-75 -18l-82 -31
q-59 -23 -115 -76q-45 -45 -65 -102l-19 -76l-4 -57l-12 -107q-12 -92 -66 -158q-23 -28 -57 -58q-27 -26 -70 -56l25 61l11 33l11 39q13 44 13 135l6 100l6 89q23 145 92 217q19 19 30 29t31 27q14 11 35 25q14 9 20 13l53 29q11 5 26 11.5t28 10.5l174 55l17 7q7 2 20 12
l29 16l78 66v-545h-140zM84 0h-104v139h114z" />
    <glyph glyph-name="paragraph" unicode="&#xf29a;" horiz-adv-x="2009" 
d="M272 0l15 139h600v-139h-615zM616 166v309l-75 -18l-82 -31q-59 -23 -115 -76q-45 -45 -65 -102l-19 -76l-4 -57l-12 -107q-12 -92 -66 -158q-23 -28 -57 -58q-27 -26 -70 -56l23 59q12 28 24.5 72t12.5 137l6 100l6 89q23 145 92 217q19 19 30 29t31 27q14 11 35 25
q14 9 20 13l53 29q11 5 26 11.5t28 10.5l174 55l17 7q7 2 20 12l21 12l22 16l29 21l35 33v-545h-140zM84 0h-104v139h114zM1360 -315q-29 -29 -68 -29q-38 0 -67 26t-29 68q0 41 29 68.5t67 27.5q35 0 68 -30q14 -15 21 -31.5t7 -34.5q0 -19 -6 -34t-22 -31zM1963 104
q-14 -9 -37 -23l-27 -15q-29 -16 -80 -35q-84 -31 -186 -31h-835l8 139h382q-65 38 -116 94l-46 52l-33 46l-33 64l-40 92q-9 23 -17.5 53.5t-14 65t-8.5 77t-3 89.5v348l68 -88l53 -98h8q47 0 83 -36t36 -91l-23 8l-36 8q-24 0 -43 -16q-18 -11 -21 -43v-19
q0 -289 219 -448q108 -77 238 -117.5t272 -40.5h279z" />
    <glyph glyph-name="periodcentered" unicode="&#xf29b;" horiz-adv-x="2009" 
d="M272 0l15 139h600v-139h-615zM616 166v309l-75 -18l-82 -31q-59 -23 -115 -76q-45 -45 -65 -102l-19 -76l-4 -57l-12 -107q-12 -92 -66 -158q-23 -28 -57 -58q-27 -26 -70 -56l23 59q12 28 24.5 72t12.5 137l6 100l6 89q23 145 92 217q19 19 30 29t31 27q14 11 35 25
q14 9 20 13l53 29q11 5 26 11.5t28 10.5l174 55l17 7q7 2 20 12l21 12l22 16l29 21l35 33v-545h-140zM84 0h-104v139h114zM1963 104q-14 -9 -37 -23l-27 -15q-29 -16 -80 -35q-84 -31 -186 -31h-835l8 139h382q-65 38 -116 94l-46 52l-33 46l-33 64l-40 92q-9 23 -17.5 53.5
t-14 65t-8.5 77t-3 89.5v348l68 -88l53 -98h8q47 0 83 -36t36 -91l-23 8l-36 8q-24 0 -43 -16q-18 -11 -21 -43v-19q0 -289 219 -448q108 -77 238 -117.5t272 -40.5h279z" />
    <glyph glyph-name="cedilla" unicode="&#xf29c;" horiz-adv-x="2009" 
d="M272 0l15 139h600v-139h-615zM616 166v309l-75 -18l-82 -31q-59 -23 -115 -76q-45 -45 -65 -102l-19 -76l-4 -57l-12 -107q-12 -92 -66 -158q-23 -28 -57 -58q-27 -26 -70 -56l23 59q12 28 24.5 72t12.5 137l6 100l6 89q23 145 92 217q19 19 30 29t31 27q14 11 35 25
q14 9 20 13l53 29q11 5 26 11.5t28 10.5l174 55l17 7q7 2 20 12l21 12l22 16l29 21l35 33v-545h-140zM84 0h-104v139h114zM1451 539q-29 -29 -68 -29q-38 0 -67 26t-29 68q0 40 29.5 68t66.5 28q35 0 68 -30q14 -15 21 -31.5t7 -34.5t-6 -33.5t-22 -31.5zM1963 104
q-14 -9 -37 -23l-27 -15q-29 -16 -80 -35q-84 -31 -186 -31h-835l8 139h382q-65 38 -116 94l-46 52l-33 46l-33 64l-40 92q-9 23 -17.5 53.5t-14 65t-8.5 77t-3 89.5v348l68 -88l53 -98h8q47 0 83 -36t36 -91l-23 8l-36 8q-24 0 -43 -16q-18 -11 -21 -43v-19
q0 -289 219 -448q108 -77 238 -117.5t272 -40.5h279z" />
    <glyph glyph-name="onesuperior" unicode="&#xf29d;" horiz-adv-x="1200" 
d="M266 0l15 139h780v971q0 21 -12.5 36.5t-32.5 18.5q-18 0 -33 -18h-25q0 54 36.5 91.5t82.5 37.5h8l89 174h26v-1450h-934zM610 166v309q-33 -6 -53 -13q-11 -3 -19 -5t-20 -8l-45 -15q-14 -3 -35 -14q-48 -18 -100 -70q-46 -46 -64 -98l-16 -66l-3 -36l-5 -35l-12 -107
q-6 -50 -23 -86q-15 -37 -42 -70t-58 -60q-27 -26 -70 -56l2 37l21 37q12 18 24 55.5t12 138.5l7 100l6 89q23 145 92 217q19 19 30 29t31 27q27 22 58 40q50 31 104 49l174 55q17 6 37 19l39 24q17 14 35 58h33v-545h-140zM78 0h-98v139h108z" />
    <glyph glyph-name="ordmasculine" unicode="&#xf29e;" horiz-adv-x="1593" 
d="M1108 0l14 139h330v336l-53 -12q-14 -4 -21.5 -6.5t-17.5 -7.5l-41 -14l-39 -15q-44 -17 -100 -70q-48 -48 -64 -98l-16 -66l-3 -36l-5 -35l-13 -107q-9 -92 -63 -158q-29 -32 -58 -57q-34 -30 -71 -57q0 19 3.5 34t16.5 35l15 33l14 35q10 38 10 131l6 100q0 53 9 89
q18 145 110 237q86 83 203 125l174 55q17 6 37 19q14 6 41 26l33 25l34 31v-711h-485zM920 0h-648l15 139h643zM616 166v309l-75 -18l-82 -31q-59 -23 -115 -76q-45 -45 -65 -102l-19 -76l-4 -57l-12 -107q-12 -92 -66 -158q-23 -28 -57 -58q-27 -26 -70 -56q0 19 4.5 34.5
t16.5 34.5l12 26l16 42l8 50q3 30 3 81l6 100l6 89q23 145 92 217q19 19 30 29t31 27q14 11 35 25q14 9 20 13l53 29q11 5 26 11.5t28 10.5l174 55l17 7q7 2 20 12l21 12l22 16l33 23q6 3 31 31v-545h-140zM84 0h-141v139h151z" />
    <glyph glyph-name="guillemotright" unicode="&#xf29f;" horiz-adv-x="1960" 
d="M1135 682q-56 -129 -157.5 -210t-154.5 -107l-58 -25l-71 -25l-110 111q27 5 53 10.5t50 12.5q42 11 62 19l36 15q16 6 24 13l29 17l59 42q68 47 136.5 171.5t68.5 270.5q0 126 -92 263q-87 129 -172 157q18 6 41 6l34 -3q6 -1 16.5 -4t18.5 -7q27 -9 82 -49
q44 -33 103 -119l34 64l35 59v-262q0 -262 -67 -420zM1155 0q-54 0 -89 23q-33 24 -60 69l-134 266l29 15l31 20l55 51l135 -270l7 -11l12 -11q7 -5 30 -13h215v-139h-231zM854 563l-63 -39l-162 326l-23 31l-20 10l-23 -10l-33 -29l-151 -152l-37 -26q-24 -12 -35 -12
l377 -377q27 -24 48 -57q20 -28 38 -74q35 -79 35 -154q0 -159 -118 -278t-281 -119q-165 0 -285 116q-57 57 -87 127q-14 36 -21 72.5t-7 81.5q0 140 96 250q96 101 246 131l115 -115h-49q-105 0 -187 -78.5t-82 -187.5q0 -103 75.5 -180.5t185.5 -77.5q102 0 182 76
q35 35 56 82q10 23 15 47t5 53q0 64 -17 98q-12 37 -55 84l-565 566l34 -5l29 -2l55 3q12 2 25 4.5t28 6.5q27 8 51 20.5t42 33.5l141 141q90 90 154 90q47 0 92 -30q37 -29 65 -78l162 -322q-8 -13 -51 -47zM592 -612q-29 -29 -70 -29q-18 0 -35 6q-15 7 -30 23
q-31 25 -31 65q0 36 27 68q28 28 69 28q40 0 68 -28q14 -17 21 -33t7 -35q0 -36 -26 -65zM381 -612q-29 -29 -70 -29q-18 0 -35 6q-15 7 -30 23q-31 25 -31 65q0 36 27 68q28 28 69 28q40 0 68 -28q14 -15 21 -33q4 -9 6 -16.5t2 -18.5q0 -33 -27 -65zM1704 1063
q-29 -29 -68 -29q-18 0 -33 6t-32 23q-31 28 -31 67q0 38 27 68q31 29 69 29t58 -23l19 -19l11 -17q3 -7 8 -38q0 -39 -28 -67zM1268 0v139h555v101h-484v108q0 83 30 178t108 164t182 107l159 55l35 14q10 4 41 27l20 14l17 15l10 7q10 7 21 19v-948h-694zM1823 715
l-84 -21q-33 -10 -64 -26q-18 -7 -29 -13t-28 -18q-12 -8 -25.5 -18.5t-25.5 -22.5q-48 -42 -67 -100.5t-19 -116.5h342v336z" />
    <glyph glyph-name="onequarter" unicode="&#xf2a1;" horiz-adv-x="1610" 
d="M412 0q-178 0 -265 77.5t-112 141.5l-21 70v12q0 30 6 59q8 28 23 46l20 -68q27 -71 104.5 -135t207.5 -64h919q55 0 84 27t29 67v209q-45 -15 -111 -24l-69 -5l-74 -3h-270q-103 0 -191.5 -54.5t-93.5 -89.5v-100h-141v948q0 24 -13 37.5t-30 13.5q-21 0 -35 -6l-25 -12
q0 26 8 45q5 11 11.5 22t17.5 23q39 39 82 39h8l47 96l70 107v-1028q56 49 135 73q22 7 51 13q10 2 36 7q24 3 49.5 5t56.5 2h278q48 0 79.5 4.5t49.5 9.5t41 15q74 30 129 69l43 35v-451l-1 -21l-3 -26l-3 -23q-2 -12 -7 -24h139v-139h-1259zM485 -209q-21 -21 -60.5 -39
t-70.5 -24q18 21 30 47q5 10 12.5 28t15.5 35l16 62l12 73h135q0 -44 -22 -89.5t-68 -92.5z" />
    <glyph glyph-name="onehalf" unicode="&#xf2a2;" horiz-adv-x="1547" 
d="M1493 72q-66 -72 -199 -72h-882q-177 0 -267 78t-129 194l-3 21q0 20 7 45l7 32q6 25 16 36l20 -68q27 -71 104.5 -135t207.5 -64h919q55 0 84 27t29 67v209q-45 -15 -111 -24l-69 -5l-74 -3h-270q-103 0 -191.5 -54.5t-93.5 -89.5v-100h-141v948q0 24 -13 37.5t-30 13.5
q-25 0 -37 -8l-23 -10q0 26 8 45q5 11 11.5 22t17.5 23q39 39 82 39h8l43 84l74 119v-1028q56 49 135 73q22 7 51 13q10 2 36 7q24 3 49.5 5t56.5 2h278q48 0 79.5 4.5t49.5 9.5t41 15q74 30 129 69l43 35v-451q0 -51 -12 -89.5t-41 -71.5zM485 -209q-21 -21 -67 -44
q-21 -11 -36 -15t-28 -4q18 21 30 47q5 10 12.5 28t15.5 35l16 62l12 73h135q0 -44 -22 -89.5t-68 -92.5z" />
    <glyph glyph-name="threequarters" unicode="&#xf2a3;" horiz-adv-x="1286" 
d="M1231 72q-63 -72 -197 -72h-1054v139h1054q51 0 88 31q23 25 23 63v209q-47 -13 -107 -24l-70 -5l-75 -3h-272q-104 0 -195 -58q-87 -54 -90 -86v-100h-139v948q0 24 -13 37.5t-30 13.5q-33 0 -60 -18q0 54 37 91.5t82 37.5h8l68 133l47 70v-1028q28 25 60.5 42t75.5 31
q23 7 52 13q10 2 36 7q24 3 49.5 5t56.5 2h278q48 0 79.5 4.5t49.5 9.5t41 15q74 30 129 69l43 35v-451q0 -96 -55 -161zM225 -209q-32 -33 -71 -60q-20 -14 -39 -24.5t-45 -19.5l24 41l30 51l26 53l22 74q4 16 6 32t2 35h135q0 -44 -22 -89.5t-68 -92.5zM827 768
q-27 -29 -69 -29q-19 0 -35 6t-33 23q-28 28 -28 67q0 38 28.5 67.5t67.5 29.5q36 0 67 -31q29 -27 29 -66q0 -40 -27 -67z" />
    <glyph glyph-name="questiondown" unicode="&#xf2a4;" horiz-adv-x="1380" 
d="M827 678q-27 -29 -69 -29q-19 0 -35 6t-33 23q-28 28 -28 67q0 38 28.5 67.5t67.5 29.5q36 0 67 -31q29 -27 29 -66q0 -40 -27 -67zM-20 0v139h1054q51 0 88 31q23 25 23 63v209q-47 -13 -107 -24l-70 -5l-75 -3h-272q-104 0 -195 -58q-87 -54 -90 -86v-100h-139v948
q0 24 -13 37.5t-30 13.5h-31l-29 -18q0 54 37 91.5t82 37.5h8l49 96l66 107v-1028q28 25 60.5 42t75.5 31q23 7 52 13q10 2 36 7q24 3 49.5 5t56.5 2h278q48 0 79.5 4.5t49.5 9.5t41 15q74 30 129 69l43 35v-451v-25q-3 -17 -5 -31t-11 -38h160v-139h-1450zM225 -209
q-37 -37 -133 -100l2 37q27 37 56 110q6 15 11.5 33t10 35t6.5 32.5t2 34.5h135q0 -44 -22 -89.5t-68 -92.5z" />
    <glyph glyph-name="Agrave" unicode="&#xf2a5;" horiz-adv-x="1610" 
d="M1087 678q-27 -29 -67 -29q-33 0 -64.5 28t-31.5 68q0 39 28 68q14 14 27 19.5t21.5 7.5t19.5 2q33 0 65 -31q29 -27 29 -66q0 -40 -27 -67zM412 0q-178 0 -265 77.5t-112 141.5l-21 70v12q0 30 6 59q8 28 23 46l20 -68q27 -71 104.5 -135t207.5 -64h919q55 0 84 27
t29 67v209q-45 -15 -111 -24l-69 -5l-74 -3h-270q-103 0 -191.5 -54.5t-93.5 -89.5v-100h-141v948q0 24 -13 37.5t-30 13.5q-21 0 -35 -6l-25 -12q0 26 8 45q5 11 11.5 22t17.5 23q39 39 82 39h8l47 96l70 107v-1028q56 49 135 73q22 7 51 13q10 2 36 7q24 3 49.5 5t56.5 2
h278q48 0 79.5 4.5t49.5 9.5t41 15q74 30 129 69l43 35v-451l-1 -21l-3 -26l-3 -23q-2 -12 -7 -24h139v-139h-1259zM485 -209q-21 -21 -60.5 -39t-70.5 -24q18 21 30 47q5 10 12.5 28t15.5 35l16 62l12 73h135q0 -44 -22 -89.5t-68 -92.5z" />
    <glyph glyph-name="Aacute" unicode="&#xf2a6;" horiz-adv-x="1547" 
d="M1100 805q-27 -27 -68 -27q-18 0 -34 6t-33 21q-29 27 -29 67q0 42 29 68q29 29 67 29q33 0 64.5 -28t31.5 -69q0 -39 -28 -67zM1493 72q-66 -72 -199 -72h-882q-177 0 -267 78t-129 194l-3 21q0 20 7 45l7 32q6 25 16 36l20 -68q27 -71 104.5 -135t207.5 -64h919
q55 0 84 27t29 67v209q-45 -15 -111 -24l-69 -5l-74 -3h-270q-103 0 -191.5 -54.5t-93.5 -89.5v-100h-141v948q0 24 -13 37.5t-30 13.5q-25 0 -37 -8l-23 -10q0 26 8 45q5 11 11.5 22t17.5 23q39 39 82 39h8l43 84l74 119v-1028q56 49 135 73q22 7 51 13q10 2 36 7
q24 3 49.5 5t56.5 2h278q48 0 79.5 4.5t49.5 9.5t41 15q74 30 129 69l43 35v-451q0 -51 -12 -89.5t-41 -71.5zM485 -209q-21 -21 -67 -44q-21 -11 -36 -15t-28 -4q18 21 30 47q5 10 12.5 28t15.5 35l16 62l12 73h135q0 -44 -22 -89.5t-68 -92.5z" />
    <glyph glyph-name="Acircumflex" unicode="&#xf2a7;" horiz-adv-x="1067" 
d="M1004 70q-91 -70 -170 -70h-854v139h317q-67 73 -119 187q-44 106 -67 217l-17 88h539v43q0 19 -12 37q-11 9 -31 14q-14 0 -19 -2q-5 0 -16 -6l-25 -10q0 52 35 90q40 37 84 37h8l72 120l45 56v-521h-493l6 -33l7 -26l14 -33l28 -55q33 -67 124 -135t236 -68h375z" />
    <glyph glyph-name="Atilde" unicode="&#xf2a8;" horiz-adv-x="981" 
d="M770 403q-68 0 -135 -67l-113 -123q-51 -48 -104 -86t-115 -70q-120 -57 -258 -57h-86v139h86q107 0 205 51q21 11 46.5 27.5t47.5 34.5q44 34 98 88l117 123q77 74 137 74h15q0 81 -95 81h-34q0 47 -29 89l-31 28l-28 25l-29 -25l-33 -28q-11 -16 -20 -41q-6 -21 -9 -48
h-32q-95 0 -95 -81h13q43 0 82 -29q23 -13 45 -33l53 -51l-49 -53l-29 -29l-26 -23q-39 42 -76 64l-35 14q-20 6 -39 6h-102q0 174 51.5 260.5t128.5 86.5h10l25 51q5 10 68.5 64t97.5 116q29 -60 96 -119l69 -61l23 -51h10q76 0 129 -86q22 -41 38 -109q13 -68 13 -152
h-102zM940 0q-56 0 -107 9t-105.5 30.5t-101 49.5t-100.5 71l27 24l29 29l41 55q90 -69 159 -99t158 -30h66v-139h-66z" />
    <glyph glyph-name="Adieresis" unicode="&#xf2a9;" horiz-adv-x="854" 
d="M852 0q-129 0 -248 49q-56 23 -110 57q-48 30 -103 78l23 29l24 29l56 49q78 -75 170 -113.5t188 -38.5h57v-139h-57zM778 -709q-272 111 -479 277t-207 383q0 100 61.5 208t127.5 177l59 58l44 39l43 31l54 36q65 37 115 37h12q0 46 -20 63.5t-72 17.5h-33q0 48 -28 89
l-31 28l-31 25l-28 -25l-31 -28q-29 -41 -29 -89h-35q-30 0 -44.5 -3.5t-26.5 -12.5q-19 -16 -19 -65h13q39 0 65 -17q13 -7 24 -16l27 -21q24 -18 43 -37l-55 -47l-27 -26l-24 -29q-34 32 -62.5 45.5t-66.5 13.5h-103q0 88 12 152.5t38 108.5q50 86 131 86h10l22 51
q3 6 62 59q56 44 73 68q19 20 33 53q32 -62 62 -88l63 -55q32 -26 39 -37l25 -51h10q71 0 125 -76q53 -94 53 -271h-100q-60 0 -133 -43q-65 -34 -119 -88q-45 -47 -80 -92l-33 -45l-39 -61q-37 -68 -37 -123q0 -161 181 -320q175 -148 397 -266q204 -107 238 -113l-22 -4
l-38 -4l-48 3l-54 12q-61 13 -107 32z" />
    <glyph glyph-name="Aring" unicode="&#xf2aa;" horiz-adv-x="979" 
d="M915 91q-20 -16 -42.5 -30t-44.5 -24q-42 -18 -87 -18h-186q-59 0 -107 -6q-24 -3 -44 -7.5t-47 -14.5t-44 -16t-40 -17q-38 -16 -66 -35q-54 -34 -57 -46q0 -157 147 -306q69 -69 153 -133q80 -62 171 -117q82 -47 136 -76q47 -26 62 -31l-36 -7l-33 -2h-15h-12
q-8 2 -12 2q-14 0 -39 9l-50 17q-11 4 -31 12t-42 19q-85 38 -179 97.5t-232 190t-138 354.5q0 33 96 101q44 30 92 56l82 42q-43 35 -81 84q-34 45 -68 111q-27 55 -53 127q-22 67 -39 129l-23 110h537v44q0 21 -13 38q-9 9 -30 14q-18 0 -35 -6l-25 -12q0 57 37 94
q33 30 82 36h8l43 88l72 92v-534h-492l4 -23l10 -32l16 -41l26 -56q27 -63 121 -135q46 -33 103.5 -52t127.5 -19h383z" />
    <glyph glyph-name="AE" unicode="&#xf2ab;" horiz-adv-x="1067" 
d="M432 799q-27 -29 -67 -29t-69 26q-28 28 -28 68q0 42 29 68q8 7 12 10t18 10q16 6 35 9q42 0 68 -29q29 -29 29 -68q0 -17 -6 -32.5t-21 -32.5zM1004 70q-91 -70 -170 -70h-854v139h317q-67 73 -119 187q-44 106 -67 217l-17 88h539v43q0 19 -12 37q-11 9 -31 14
q-14 0 -19 -2q-5 0 -16 -6l-25 -10q0 52 35 90q40 37 84 37h8l72 120l45 56v-521h-493l6 -33l7 -26l14 -33l28 -55q33 -67 124 -135t236 -68h375z" />
    </font>
</defs>
</svg>
